<?xml version="1.0" encoding="UTF-8"?>
<svg version="1.1" xmlns="http://www.w3.org/2000/svg" width="500" height="500">
<path d="M0 0 C165 0 330 0 500 0 C500 165 500 330 500 500 C335 500 170 500 0 500 C0 335 0 170 0 0 Z " fill="#252525" transform="translate(0,0)"/>
<path d="M0 0 C12.94187486 10.98122923 23.9403964 25.40854758 29.125 41.7109375 C29.39699219 42.55140625 29.66898438 43.391875 29.94921875 44.2578125 C30.71828175 46.73382022 31.4453354 49.20887551 32.125 51.7109375 C32.47433594 52.79503906 32.82367188 53.87914062 33.18359375 54.99609375 C34.86276659 61.83090183 34.56627465 69.025426 34.5625 76.0234375 C34.56290283 76.78315857 34.56330566 77.54287964 34.5637207 78.32562256 C34.50591379 97.22300215 30.46587006 112.26541564 21.125 128.7109375 C20.32642578 130.16886719 20.32642578 130.16886719 19.51171875 131.65625 C13.18823699 142.42029092 3.74425181 153.03324582 -6.875 159.7109375 C-7.93074219 160.37738281 -8.98648438 161.04382813 -10.07421875 161.73046875 C-13.32113624 163.7575146 -16.5934788 165.7403441 -19.875 167.7109375 C-20.69226563 168.23300781 -21.50953125 168.75507813 -22.3515625 169.29296875 C-43.0101393 180.90142599 -72.50108962 181.88863561 -94.875 175.7109375 C-121.26036036 167.1743041 -144.03035722 149.23994626 -157.09765625 124.640625 C-159.23620774 120.41507112 -161.08806447 116.09465625 -162.875 111.7109375 C-163.14747559 111.07978027 -163.41995117 110.44862305 -163.70068359 109.79833984 C-167.94477275 99.69172051 -168.31884072 89.59102541 -168.3125 78.7734375 C-168.31310425 77.76818024 -168.31310425 77.76818024 -168.3137207 76.74261475 C-168.28561659 68.83106427 -167.78095853 61.39296199 -165.875 53.7109375 C-165.6378125 52.59847656 -165.400625 51.48601562 -165.15625 50.33984375 C-161.30629707 35.22877848 -153.55964051 21.05888623 -142.875 9.7109375 C-142.04484375 8.80214844 -141.2146875 7.89335937 -140.359375 6.95703125 C-126.30451231 -7.81701301 -109.62366696 -17.19180605 -89.875 -22.2890625 C-89.05644531 -22.51464844 -88.23789063 -22.74023438 -87.39453125 -22.97265625 C-56.16812326 -30.17111278 -24.22117558 -19.7016311 0 0 Z " fill="#FAFAFA" transform="translate(316.875,129.2890625)"/>
<path d="M0 0 C8.53931002 5.04982453 13.3931429 11.6169287 16.5 20.9375 C17.14844562 27.84593987 16.09626897 33.53955146 13.5 39.9375 C14.139375 40.246875 14.77875 40.55625 15.4375 40.875 C17.5 41.9375 17.5 41.9375 18.5 42.9375 C18.54080783 44.93708364 18.54254356 46.93795254 18.5 48.9375 C16.85 49.5975 15.2 50.2575 13.5 50.9375 C13.5 90.5375 13.5 130.1375 13.5 170.9375 C15.15 171.5975 16.8 172.2575 18.5 172.9375 C19.5625 175.3125 19.5625 175.3125 19.5 177.9375 C16.83860007 181.5570039 13.47958167 183.0273008 9.5 184.9375 C8.51 185.618125 7.52 186.29875 6.5 187 C2.11026034 189.8350402 -1.27731808 190.9375 -6.5 190.9375 C-7.16 192.5875 -7.82 194.2375 -8.5 195.9375 C-10.81 196.2675 -13.12 196.5975 -15.5 196.9375 C-18.5 193.1875 -18.5 193.1875 -18.5 190.9375 C-19.634375 190.875625 -20.76875 190.81375 -21.9375 190.75 C-27.62024982 190.05229584 -33.05228624 187.40915228 -37.09765625 183.32421875 C-38.5116467 181.71267091 -38.5116467 181.71267091 -41.125 181.125 C-41.90875 180.733125 -42.6925 180.34125 -43.5 179.9375 C-44.3125 176.8125 -44.3125 176.8125 -44.5 173.9375 C-40.75 170.9375 -40.75 170.9375 -38.5 170.9375 C-38.5 131.3375 -38.5 91.7375 -38.5 50.9375 C-39.82 50.6075 -41.14 50.2775 -42.5 49.9375 C-43.16 49.2775 -43.82 48.6175 -44.5 47.9375 C-44.3125 44.9375 -44.3125 44.9375 -43.5 41.9375 C-42.51 41.2775 -41.52 40.6175 -40.5 39.9375 C-40.644375 39.39222656 -40.78875 38.84695312 -40.9375 38.28515625 C-43.43489244 28.13949946 -43.0174364 20.50909791 -38.5 10.9375 C-30.58060989 -1.40743165 -13.29170233 -6.24648568 0 0 Z " fill="#FBFBFB" transform="translate(126.5,109.0625)"/>
<path d="M0 0 C7.49565279 3.98162275 12.86840624 10.53441938 16.25 18.1875 C18.20725903 26.16709452 17.11893511 32.96807062 14.0625 40.5 C14.701875 40.809375 15.34125 41.11875 16 41.4375 C18.0625 42.5 18.0625 42.5 19.0625 43.5 C19.10330783 45.49958364 19.10504356 47.50045254 19.0625 49.5 C17.4125 50.16 15.7625 50.82 14.0625 51.5 C14.0625 91.1 14.0625 130.7 14.0625 171.5 C15.7125 172.16 17.3625 172.82 19.0625 173.5 C20.125 175.875 20.125 175.875 20.0625 178.5 C17.27321735 182.33526364 13.18283307 184.33096288 9.0625 186.5 C8.08023438 187.04720703 8.08023438 187.04720703 7.078125 187.60546875 C2.67721632 189.96797205 -0.95597911 191.08487326 -5.9375 191.5 C-6.5975 193.15 -7.2575 194.8 -7.9375 196.5 C-14.40645075 197.84261242 -14.40645075 197.84261242 -16.875 196.25 C-17.9375 194.5 -17.9375 194.5 -17.9375 191.5 C-19.071875 191.438125 -20.20625 191.37625 -21.375 191.3125 C-27.98165724 190.50136237 -33.31199225 187.13835638 -37.9375 182.5 C-40.53665538 181.30972016 -40.53665538 181.30972016 -42.9375 180.5 C-42.9375 178.19 -42.9375 175.88 -42.9375 173.5 C-40.4625 172.51 -40.4625 172.51 -37.9375 171.5 C-37.9375 131.9 -37.9375 92.3 -37.9375 51.5 C-39.5875 50.84 -41.2375 50.18 -42.9375 49.5 C-43.125 46.6875 -43.125 46.6875 -42.9375 43.5 C-42.421875 43.02433594 -41.90625 42.54867187 -41.375 42.05859375 C-40.900625 41.54425781 -40.42625 41.02992188 -39.9375 40.5 C-40.0149248 38.48661879 -40.0149248 38.48661879 -40.75 36.375 C-43.08602425 27.35210634 -42.30606728 19.57009154 -37.75390625 11.3671875 C-29.67921265 -0.6647922 -13.50647305 -5.36947353 0 0 Z " fill="#FCFCFC" transform="translate(397.9375,108.5)"/>
<path d="M0 0 C1.29361601 0.35784443 2.58793045 0.71317051 3.8828125 1.06640625 C29.3430606 8.23573992 49.78070416 25.24724143 63 48 C69.62127205 60.06099083 73.92532215 73.19953284 74 87 C74.03724026 88.68230326 74.07504759 90.36459402 74.11328125 92.046875 C74.27427508 101.52602202 74.28160299 110.74093669 72 120 C71.77828125 120.98226562 71.5565625 121.96453125 71.328125 122.9765625 C67.17523895 138.76536511 58.00787127 152.20585221 47 164 C46.35804688 164.73347656 45.71609375 165.46695313 45.0546875 166.22265625 C32.27961995 180.13144192 9.79636318 192.09461983 -9.1015625 193.11328125 C-10.7347824 193.12304153 -12.36822765 193.06943712 -14 193 C-11.08446259 190.5604687 -8.01681037 189.01920621 -4.56762695 187.45092773 C9.3277325 181.06027653 20.36643331 171.52867198 26 157 C26.33 157 26.66 157 27 157 C27.33 159.31 27.66 161.62 28 164 C36.77464285 155.57373007 41.20069981 146.64630759 41.5 134.375 C41.31640234 128.65386001 40.40353956 123.58371605 38.55859375 118.171875 C38 116 38 116 39 113 C39.99 114.485 39.99 114.485 41 116 C41.061875 115.05125 41.12375 114.1025 41.1875 113.125 C41.7796643 108.76773137 43.72274951 105.3315801 45.84375 101.52734375 C49.21255777 94.1637673 49.1797029 83.66119298 47.1875 75.875 C45.79874265 72.32823371 45.79874265 72.32823371 43 70 C40 69.75 40 69.75 37 70 C36.01 70 35.02 70 34 70 C37.7947494 64.30787589 37.7947494 64.30787589 40.97265625 63.49609375 C44.23736776 63.40455978 46.63794719 63.80087095 49.5 65.375 C51 67 51 67 51 69 C51.66 69 52.32 69 53 69 C52.73510924 61.172478 51.75854433 54.92271421 48 48 C49.65 48.66 51.3 49.32 53 50 C45.04105117 35.97305826 36.63454608 28.06994618 21 23 C15.35350007 21.79003573 9.74838216 21.89590455 4 22 C4.58265625 22.08636719 5.1653125 22.17273438 5.765625 22.26171875 C14.60121458 23.77599432 23.84818666 26.14845434 30 33 C27.09309577 32.05722025 24.21251307 31.08248656 21.36328125 29.9765625 C20.41839844 29.61304688 19.47351563 29.24953125 18.5 28.875 C17.15421875 28.34519531 17.15421875 28.34519531 15.78125 27.8046875 C12.52195102 26.72207296 12.52195102 26.72207296 7 27 C10.96 28.32 14.92 29.64 19 31 C15.72613547 32.09128818 15.01105614 31.9048048 11.8125 31.0625 C0.85389139 28.77479046 -9.44773148 28.40763227 -19.37109375 34.078125 C-23.61400242 37.1799245 -26.76051836 40.90186058 -30 45 C-30.98418372 46.01556999 -31.97850222 47.02197021 -33 48 C-33.37186022 41.92628304 -33.04351492 37.4573371 -30 32 C-27.3125 29.0625 -27.3125 29.0625 -25 27 C-25.99 30.63 -26.98 34.26 -28 38 C-27.5875 37.27554688 -27.175 36.55109375 -26.75 35.8046875 C-22.9216698 29.39565256 -19.44974993 24.80620916 -13 21 C-12.39285156 20.58878906 -11.78570312 20.17757812 -11.16015625 19.75390625 C-2.78040313 14.95836437 9.25757645 15.86320801 18.453125 17.68359375 C20.69978745 18.35438297 22.84892637 19.07100162 25 20 C23.34248464 18.71725374 21.67343988 17.44940099 20 16.1875 C18.6078125 15.12595703 18.6078125 15.12595703 17.1875 14.04296875 C10.12838033 9.51855749 3.79853874 8.52358202 -4.5 8.3125 C-5.4178125 8.27833984 -6.335625 8.24417969 -7.28125 8.20898438 C-9.5207109 8.12733736 -11.7598215 8.05792462 -14 8 C-10.59568053 5.73045369 -8.83475798 5.63450051 -4.8125 5.375 C-3.72582031 5.30023438 -2.63914062 5.22546875 -1.51953125 5.1484375 C-0.68808594 5.09945312 0.14335937 5.05046875 1 5 C-19.00855832 4.29450725 -30.68764307 7.70242688 -46 21 C-42.89669851 13.66492376 -37.72512143 9.77140805 -31 6 C-41.57987245 8.68330098 -49.36104959 14.43924816 -56 23 C-56.495 21.515 -56.495 21.515 -57 20 C-54.1301632 14.66232689 -49.76233089 10.62844258 -45 7 C-52.42731714 8.71399626 -58.73340755 13.5937315 -62.875 19.9375 C-65.06090438 23.80602493 -66.53423651 27.81210431 -68 32 C-68.64972503 33.34167046 -69.31234808 34.67736737 -70 36 C-70.55353075 22.3667426 -70.55353075 22.3667426 -67 16 C-67.81721717 17.10067996 -68.62859451 18.20569731 -69.4375 19.3125 C-70.11619141 20.23482422 -70.11619141 20.23482422 -70.80859375 21.17578125 C-73.41303827 25.16357008 -73.1179929 29.11573918 -73.0625 33.6875 C-73.05798828 34.38939453 -73.05347656 35.09128906 -73.04882812 35.81445312 C-73.03706927 37.54300538 -73.01913454 39.27151365 -73 41 C-75.46301423 38.53698577 -75.76766521 36.72639964 -76.625 33.375 C-76.88539063 32.37210938 -77.14578125 31.36921875 -77.4140625 30.3359375 C-77.60742188 29.56507813 -77.80078125 28.79421875 -78 28 C-78.1488256 32.67486793 -78.1488256 32.67486793 -77.375 37.25 C-77.25125 37.8275 -77.1275 38.405 -77 39 C-77.66 39.99 -78.32 40.98 -79 42 C-79.99 41.01 -80.98 40.02 -82 39 C-81.34 40.65 -80.68 42.3 -80 44 C-82.475 42.02 -82.475 42.02 -85 40 C-82.43571997 44.17882671 -79.98069267 47.12505529 -76 50 C-80.87362847 49.54663921 -83.39042389 48.2910841 -87 45 C-85.03681826 48.53372712 -82.95929119 51.24479785 -80 54 C-80.495 54.99 -80.495 54.99 -81 56 C-81.08372659 57.52148326 -81.10730027 59.04655778 -81.09765625 60.5703125 C-81.09443359 61.46621094 -81.09121094 62.36210937 -81.08789062 63.28515625 C-81.07951172 64.22230469 -81.07113281 65.15945312 -81.0625 66.125 C-81.05798828 67.06988281 -81.05347656 68.01476562 -81.04882812 68.98828125 C-81.03702357 71.32558387 -81.02055759 73.66276061 -81 76 C-81.33 75.34 -81.66 74.68 -82 74 C-85.33635192 72.9872962 -85.33635192 72.9872962 -89 73 C-92.8488205 75.60055439 -93.82061134 78.62664462 -95 83 C-95.27329273 85.8186593 -95.28002607 88.60754317 -95.25 91.4375 C-95.25773437 92.16259766 -95.26546875 92.88769531 -95.2734375 93.63476562 C-95.25622717 98.42353887 -94.43904569 102.39725082 -93 107 C-92.74411484 108.63911346 -92.52748711 110.28555635 -92.375 111.9375 C-92.30023438 112.70964844 -92.22546875 113.48179687 -92.1484375 114.27734375 C-92.09945312 114.84582031 -92.05046875 115.41429687 -92 116 C-90.515 115.01 -90.515 115.01 -89 114 C-89.2165625 114.78761719 -89.433125 115.57523437 -89.65625 116.38671875 C-92.94956918 129.27030534 -93.35807231 140.59614453 -88 153 C-85.48775432 157.17833029 -82.47110764 160.60099252 -79 164 C-78.505 160.04 -78.505 160.04 -78 156 C-76.22287627 158.66568559 -74.86647456 161.26705089 -73.4375 164.125 C-65.5917994 178.43963162 -51.64551515 185.89525621 -37 192 C-37 192.33 -37 192.66 -37 193 C-61.31933876 191.35123127 -83.76529605 176.90376899 -99.6328125 159.03515625 C-109.16802483 147.50508426 -115.16241472 134.40484909 -119 120 C-119.29777344 119.13246094 -119.59554687 118.26492187 -119.90234375 117.37109375 C-126.2600614 97.24320423 -122.47645842 71.93696502 -113.125 53.3125 C-111.80423663 50.84144389 -110.41547934 48.41770056 -109 46 C-108.45601562 45.0203125 -107.91203125 44.040625 -107.3515625 43.03125 C-94.50723653 21.22722347 -72.67723853 6.73703728 -48.62109375 0.0625 C-45.75459622 -0.66907238 -42.8888192 -1.36282378 -40 -2 C-39.22084229 -2.17273438 -38.44168457 -2.34546875 -37.63891602 -2.5234375 C-25.44653748 -4.72526217 -11.74281557 -3.64583675 0 0 Z " fill="#2A292A" transform="translate(274,111)"/>
<path d="M0 0 C1.18529297 0.01353516 1.18529297 0.01353516 2.39453125 0.02734375 C3.28205078 0.04474609 3.28205078 0.04474609 4.1875 0.0625 C1.53142621 1.47075389 -0.98470969 2.44504064 -3.875 3.25 C-14.14418759 6.63378148 -22.12180426 13.705457 -29.8125 21.0625 C-20.92618228 21.85239491 -12.85253288 18.29739625 -5.8125 13.0625 C-5.1525 12.7325 -4.4925 12.4025 -3.8125 12.0625 C-5.3125 15.0625 -5.3125 15.0625 -6.8125 18.0625 C-4.8325 17.7325 -2.8525 17.4025 -0.8125 17.0625 C-1.8025 18.7125 -2.7925 20.3625 -3.8125 22.0625 C-2.8225 23.5475 -2.8225 23.5475 -1.8125 25.0625 C-1.58766704 27.41043914 -1.45413794 29.76764868 -1.375 32.125 C-1.17071107 36.6869081 -0.77817715 40.85290407 0.75 45.1875 C3.16508777 52.32569046 3.29597164 60.38393312 1.125 67.625 C-1.18344802 71.72063359 -3.472515 73.54110304 -7.8125 75.0625 C-11.12473531 75.90262966 -14.43542644 76.54608634 -17.8125 77.0625 C-17.28981534 79.82526177 -16.70380413 82.3885876 -15.8125 85.0625 C-18.97365776 83.69266497 -19.8052092 83.0734362 -21.8125 80.0625 C-22.13542966 78.27948666 -22.40085278 76.48560405 -22.625 74.6875 C-23.47261371 69.67465951 -24.55382602 67.13270682 -28.8125 64.0625 C-32.66369145 62.03555713 -36.51585172 61.56798803 -40.8125 61.0625 C-40.8125 60.7325 -40.8125 60.4025 -40.8125 60.0625 C-37.8425 59.5675 -37.8425 59.5675 -34.8125 59.0625 C-38.1125 58.7325 -41.4125 58.4025 -44.8125 58.0625 C-42.8125 56.0625 -42.8125 56.0625 -39 55.625 C-33.49599276 55.71363136 -29.00052946 57.80027819 -23.9765625 59.8828125 C-18.91794429 61.76886522 -14.19680133 62.0625 -8.8125 62.0625 C-6.82865289 58.09480578 -7.48619435 53.20720514 -8.8125 49.0625 C-7.3275 50.0525 -7.3275 50.0525 -5.8125 51.0625 C-6.66164483 45.14419365 -6.66164483 45.14419365 -9.4375 40 C-12.93725966 38.61851592 -16.14760482 38.42667998 -19.8125 39.0625 C-22.87307006 40.65728763 -22.87307006 40.65728763 -25.8125 43.0625 C-32.33383593 47.791353 -36.6096598 50.0625 -44.8125 50.0625 C-45.4725 48.7425 -46.1325 47.4225 -46.8125 46.0625 C-47.1425 47.7125 -47.4725 49.3625 -47.8125 51.0625 C-49.4625 51.0625 -51.1125 51.0625 -52.8125 51.0625 C-53.1425 49.4125 -53.4725 47.7625 -53.8125 46.0625 C-54.4725 47.3825 -55.1325 48.7025 -55.8125 50.0625 C-65.36000507 50.0625 -70.51189697 46.39766154 -77.875 40.6875 C-82.00667897 38.40189036 -84.11915829 38.39202261 -88.8125 39.0625 C-91.82089318 41.1107677 -93.44599538 42.58280597 -94.3359375 46.17578125 C-94.59248892 48.1276522 -94.71252784 50.09638088 -94.8125 52.0625 C-93.8225 51.0725 -92.8325 50.0825 -91.8125 49.0625 C-91.9775 49.578125 -92.1425 50.09375 -92.3125 50.625 C-93.19754441 54.93959151 -93.20541284 58.88376148 -91.8125 63.0625 C-85.33947624 62.2935415 -79.63814791 61.1655243 -73.6875 58.4375 C-68.3916772 56.0752843 -63.59200273 54.9687694 -57.8125 56.0625 C-57.1525 56.7225 -56.4925 57.3825 -55.8125 58.0625 C-56.8025 58.3925 -57.7925 58.7225 -58.8125 59.0625 C-57.8225 59.7225 -56.8325 60.3825 -55.8125 61.0625 C-56.51375 61.07667969 -57.215 61.09085938 -57.9375 61.10546875 C-64.75858647 61.44837663 -69.58016938 62.53898264 -74.8125 67.0625 C-78.0341011 70.82103462 -78.49113908 74.9848387 -79.1875 79.7578125 C-79.88996953 82.34816891 -80.77526243 83.36849267 -82.8125 85.0625 C-83.4725 84.7325 -84.1325 84.4025 -84.8125 84.0625 C-84.4825 83.464375 -84.1525 82.86625 -83.8125 82.25 C-82.60462012 80.00863529 -82.60462012 80.00863529 -82.8125 77.0625 C-83.69292969 76.90394531 -84.57335937 76.74539062 -85.48046875 76.58203125 C-97.34919314 74.1977481 -97.34919314 74.1977481 -100.8125 69.0625 C-105.005201 58.37129945 -102.65993115 47.26429233 -100.0625 36.4375 C-99.80984375 35.28121094 -99.5571875 34.12492187 -99.296875 32.93359375 C-99.0390625 31.82886719 -98.78125 30.72414062 -98.515625 29.5859375 C-98.28520508 28.59513184 -98.05478516 27.60432617 -97.81738281 26.58349609 C-96.65581721 23.66942262 -95.45568795 22.67444933 -92.8125 21.0625 C-93.4725 20.7325 -94.1325 20.4025 -94.8125 20.0625 C-94.8125 19.4025 -94.8125 18.7425 -94.8125 18.0625 C-81.91557087 14.64771025 -70.12594838 15.95125728 -57.8125 21.0625 C-60.1225 19.0825 -62.4325 17.1025 -64.8125 15.0625 C-61.8125 14.0625 -61.8125 14.0625 -59.5078125 14.91796875 C-58.65960938 15.35753906 -57.81140625 15.79710937 -56.9375 16.25 C-56.04804688 16.70890625 -55.15859375 17.1678125 -54.2421875 17.640625 C-51.8125 19.0625 -51.8125 19.0625 -49.0625 21.5 C-48.32 22.015625 -47.5775 22.53125 -46.8125 23.0625 C-38.66185208 21.022004 -31.75991575 15.70886371 -25.3125 10.5 C-17.67889014 4.41782524 -9.93088774 -0.14822221 0 0 Z " fill="#2B2B2B" transform="translate(298.8125,150.9375)"/>
<path d="M0 0 C3.1875 1.8125 3.1875 1.8125 6 4 C6.78375 4.5775 7.5675 5.155 8.375 5.75 C8.91125 6.1625 9.4475 6.575 10 7 C10.48210937 6.57847656 10.96421875 6.15695313 11.4609375 5.72265625 C12.09257812 5.17480469 12.72421875 4.62695312 13.375 4.0625 C14.00148437 3.51722656 14.62796875 2.97195312 15.2734375 2.41015625 C17.72082239 0.41127402 18.98611027 0.00190643 22.1875 -0.4375 C27.21790545 0.13975964 29.64433481 2.34099784 33 6 C34.45147903 8.90295805 34.37239025 10.77261779 34 14 C32.52631484 16.27751344 30.88564762 18.02007 29 20 C29.886875 19.938125 30.77375 19.87625 31.6875 19.8125 C35.49959225 20.02827881 37.02060858 20.64784888 40 23 C43.46587615 27.21525477 44.2020691 29.6339427 44 35 C42.09118566 36.03544174 40.17260796 37.05290085 38.25 38.0625 C37.18265625 38.63097656 36.1153125 39.19945312 35.015625 39.78515625 C31.86909808 41.0527338 31.04886478 41.15989421 28 40 C25.04840978 39.90816625 25.04840978 39.90816625 22.38671875 40.48828125 C18.1708827 41.12527609 14.07000698 41.19087998 9.8125 41.1875 C8.55699341 41.1884668 8.55699341 41.1884668 7.27612305 41.18945312 C1.02377405 41.13627764 -4.91962945 40.53034045 -11 39 C-10.34 39.66 -9.68 40.32 -9 41 C-15.02770138 40.52412884 -19.76678289 37.80277043 -25 35 C-25.57107365 31.736722 -25.45148318 29.68870315 -23.6171875 26.890625 C-20.51718387 23.21356442 -17.85733767 20.11024861 -13 19 C-12.34 19 -11.68 19 -11 19 C-11.66 18.29875 -12.32 17.5975 -13 16.875 C-15 14 -15 14 -15.625 11.125 C-14.73612979 6.68064893 -12.25484703 4.06090536 -9 1 C-5.89046621 -0.5547669 -3.43733239 -0.28644437 0 0 Z " fill="#2B2B2B" transform="translate(239,214)"/>
<path d="M0 0 C12.94187486 10.98122923 23.9403964 25.40854758 29.125 41.7109375 C29.39699219 42.55140625 29.66898438 43.391875 29.94921875 44.2578125 C30.71828175 46.73382022 31.4453354 49.20887551 32.125 51.7109375 C32.47433594 52.79503906 32.82367188 53.87914062 33.18359375 54.99609375 C34.86276659 61.83090183 34.56627465 69.025426 34.5625 76.0234375 C34.56290283 76.78315857 34.56330566 77.54287964 34.5637207 78.32562256 C34.50591379 97.22300215 30.46587006 112.26541564 21.125 128.7109375 C20.32642578 130.16886719 20.32642578 130.16886719 19.51171875 131.65625 C13.18823699 142.42029092 3.74425181 153.03324582 -6.875 159.7109375 C-7.93074219 160.37738281 -8.98648438 161.04382813 -10.07421875 161.73046875 C-13.32113624 163.7575146 -16.5934788 165.7403441 -19.875 167.7109375 C-21.09316406 168.49210937 -21.09316406 168.49210937 -22.3359375 169.2890625 C-31.95568372 174.67612038 -43.05242595 176.59366098 -53.875 177.7109375 C-53.875 177.0509375 -53.875 176.3909375 -53.875 175.7109375 C-56.515 175.7109375 -59.155 175.7109375 -61.875 175.7109375 C-58.61286528 173.53618102 -56.01438755 173.73254187 -52.19921875 173.82421875 C-47.5846659 173.59930777 -43.25988211 172.08084726 -38.875 170.7109375 C-37.87855469 170.40929687 -36.88210938 170.10765625 -35.85546875 169.796875 C-10.51162962 161.79355738 9.00240345 144.00007273 21.37182617 120.57299805 C27.97453089 107.39277055 30.33079946 94.08968033 30.25 79.4609375 C30.24516602 78.53998291 30.24033203 77.61902832 30.23535156 76.67016602 C30.13205165 64.89294348 29.43738195 54.77694813 25.125 43.7109375 C24.77566406 42.74542969 24.42632812 41.77992188 24.06640625 40.78515625 C19.23439326 28.16173132 11.66017974 17.24611724 2.125 7.7109375 C1.35542969 6.94136719 0.58585938 6.17179687 -0.20703125 5.37890625 C-19.96609825 -13.3586904 -45.67844406 -20.79737125 -72.3046875 -20.5078125 C-79.1221989 -20.32399015 -85.31630913 -19.21515906 -91.875 -17.2890625 C-92.87273437 -17.010625 -93.87046875 -16.7321875 -94.8984375 -16.4453125 C-107.43868822 -12.62728341 -118.70612164 -6.52315427 -128.875 1.7109375 C-129.79023438 2.44957031 -130.70546875 3.18820313 -131.6484375 3.94921875 C-145.40899892 15.72471318 -156.46000261 33.05094793 -160.875 50.7109375 C-161.15085938 51.71125 -161.42671875 52.7115625 -161.7109375 53.7421875 C-167.94222852 79.58203651 -163.34939704 106.57968967 -149.6875 129.2734375 C-134.78014276 151.50370707 -113.78488437 167.0202162 -87.5625 173.234375 C-84.70410309 173.82935369 -84.70410309 173.82935369 -81.0625 173.6484375 C-76.68362745 173.73429775 -74.51077169 175.33655599 -70.875 177.7109375 C-70.875 178.0409375 -70.875 178.3709375 -70.875 178.7109375 C-97.34743508 178.32370773 -121.68757191 166.74290585 -140.20068359 147.85180664 C-150.31544191 137.13508934 -157.32697718 125.32137352 -162.875 111.7109375 C-163.14747559 111.07978027 -163.41995117 110.44862305 -163.70068359 109.79833984 C-167.94477275 99.69172051 -168.31884072 89.59102541 -168.3125 78.7734375 C-168.31310425 77.76818024 -168.31310425 77.76818024 -168.3137207 76.74261475 C-168.28561659 68.83106427 -167.78095853 61.39296199 -165.875 53.7109375 C-165.6378125 52.59847656 -165.400625 51.48601562 -165.15625 50.33984375 C-161.30629707 35.22877848 -153.55964051 21.05888623 -142.875 9.7109375 C-142.04484375 8.80214844 -141.2146875 7.89335937 -140.359375 6.95703125 C-126.30451231 -7.81701301 -109.62366696 -17.19180605 -89.875 -22.2890625 C-89.05644531 -22.51464844 -88.23789063 -22.74023438 -87.39453125 -22.97265625 C-56.16812326 -30.17111278 -24.22117558 -19.7016311 0 0 Z " fill="#D6C8E6" transform="translate(316.875,129.2890625)"/>
<path d="M0 0 C6.73757939 3.8811946 12.00466815 9.32650444 14.5 16.8125 C14.64677285 19.0592537 14.72101258 21.31114393 14.75 23.5625 C14.77578125 24.75359375 14.8015625 25.9446875 14.828125 27.171875 C14.5 30.8125 14.5 30.8125 11.5 37.8125 C-4.01 37.8125 -19.52 37.8125 -35.5 37.8125 C-39.20731719 30.39786562 -39.68723278 23.79144704 -38.06640625 15.62890625 C-35.5572183 8.88059333 -30.00636455 3.34177325 -23.875 -0.1875 C-16.03115346 -3.69219739 -7.77245574 -3.64333863 0 0 Z " fill="#272727" transform="translate(397.5,111.1875)"/>
<path d="M0 0 C4.82731014 3.54002744 10.26086696 9.01145421 11.8359375 14.91796875 C12.2782149 17.99179666 12.43266626 20.96465375 12.4765625 24.0703125 C12.50234375 25.16214844 12.528125 26.25398438 12.5546875 27.37890625 C12.2265625 30.6328125 12.2265625 30.6328125 9.2265625 36.6328125 C-6.2834375 36.6328125 -21.7934375 36.6328125 -37.7734375 36.6328125 C-41.43069675 29.31829401 -42.16029005 22.43146409 -40.234375 14.37890625 C-39.5234375 12.6328125 -39.5234375 12.6328125 -37.7734375 9.6328125 C-37.2371875 8.6221875 -36.7009375 7.6115625 -36.1484375 6.5703125 C-27.24774877 -4.43843408 -12.33003544 -7.02852183 0 0 Z " fill="#272727" transform="translate(127.7734375,112.3671875)"/>
<path d="M0 0 C2.9375 1.625 2.9375 1.625 6 4 C12.82468203 9.15714324 12.82468203 9.15714324 21 11 C21.66 10.67 22.32 10.34 23 10 C23 10.66 23 11.32 23 12 C23.66 12 24.32 12 25 12 C25.33 10.02 25.66 8.04 26 6 C28.1385485 8.1385485 28.42655063 9.13275314 29 12 C29.99 12 30.98 12 32 12 C32.66 10.02 33.32 8.04 34 6 C36 9.75 36 9.75 36 12 C36.66 12 37.32 12 38 12 C38.33 11.34 38.66 10.68 39 10 C39.721875 10.22042969 40.44375 10.44085938 41.1875 10.66796875 C44.75944392 11.08965657 46.01159299 10.2409564 49 8.3125 C49.86625 7.75820312 50.7325 7.20390625 51.625 6.6328125 C54.18850875 4.87040024 56.62241155 3.00609025 59 1 C62.21107887 -0.60553944 65.51670728 -0.47469056 69 0 C72.4458426 1.94765016 73.69946258 3.32736863 75.3125 6.9375 C75.94563249 9.75781747 76.16911315 12.12507638 76 15 C75.01 14.34 74.02 13.68 73 13 C73.495 13.99 73.495 13.99 74 15 C74.57383785 21.19744874 74.57383785 21.19744874 72.36328125 24.2890625 C70 26 70 26 67.1171875 25.875 C66.04726563 25.58625 64.97734375 25.2975 63.875 25 C62.72257812 24.69449219 61.57015625 24.38898438 60.3828125 24.07421875 C57.40936941 23.12999606 54.60850472 22.05357493 51.75 20.8125 C46.96168857 18.7480313 43.17772132 18.66595346 38 19 C42.95 19.99 42.95 19.99 48 21 C47.67 21.66 47.34 22.32 47 23 C47.66 23.66 48.32 24.32 49 25 C47 26 47 26 43.875 25.6875 C39.12749871 26.07036301 37.30938271 27.65269334 33.796875 30.6875 C32 32 32 32 29 32 C27.700625 30.824375 27.700625 30.824375 26.375 29.625 C22.70676728 26.35508548 18.75573906 25.7080767 14 25 C14 24.34 14 23.68 14 23 C17.96 22.505 17.96 22.505 22 22 C20.35 21.67 18.7 21.34 17 21 C17 20.67 17 20.34 17 20 C18.98 19.67 20.96 19.34 23 19 C15.60547844 18.26381976 10.48819583 19.76028661 3.7734375 22.82421875 C0.41050815 24.24991133 -2.3849665 24.69233757 -6 25 C-6.99 25.33 -7.98 25.66 -9 26 C-11 24.4375 -11 24.4375 -13 22 C-13.25 18.25 -13.25 18.25 -13 15 C-13.33 15.33 -13.66 15.66 -14 16 C-14.33 16 -14.66 16 -15 16 C-14.58473282 5.30687023 -14.58473282 5.30687023 -10 1 C-6.7835333 -0.60823335 -3.48910471 -0.46652812 0 0 Z " fill="#F8F8F8" transform="translate(218,189)"/>
<path d="M0 0 C4.75412509 2.12380542 7.22777494 4.63290438 9.71484375 9.30859375 C12.11851376 16.51960379 11.50068166 25.37301715 8.765625 32.4375 C6.32137226 36.78990544 2.24498731 39.38747732 -2.28515625 41.30859375 C-7.11656998 42.0045763 -11.76706196 41.96079166 -16.16015625 39.68359375 C-21.19317636 35.85849847 -23.84325271 31.43668378 -25.28515625 25.30859375 C-25.97578979 18.91114621 -25.11974167 13.11328263 -22.28515625 7.30859375 C-19.91015625 4.43359375 -19.91015625 4.43359375 -17.28515625 2.30859375 C-16.56328125 1.71046875 -15.84140625 1.11234375 -15.09765625 0.49609375 C-10.16386891 -1.5870609 -5.11773583 -1.54844315 0 0 Z " fill="#F4F4F4" transform="translate(361.28515625,339.69140625)"/>
<path d="M0 0 C3.72901814 -0.08736736 7.45777165 -0.14051482 11.1875 -0.1875 C12.24259766 -0.21263672 13.29769531 -0.23777344 14.38476562 -0.26367188 C15.91713867 -0.27817383 15.91713867 -0.27817383 17.48046875 -0.29296875 C18.41785889 -0.3086792 19.35524902 -0.32438965 20.32104492 -0.34057617 C23.55787288 0.07092251 25.3796095 1.0816351 28 3 C30.50304378 6.75456567 30.45280074 8.54745934 30 13 C28 16.4375 28 16.4375 26 19 C26.61875 19.268125 27.2375 19.53625 27.875 19.8125 C30 21 30 21 32 24 C32.46170489 28.98641282 32.18538905 32.07135351 29 36 C23.41163716 41.07609625 17.89296879 40.47257619 10.625 40.25 C9.50738281 40.23195313 8.38976562 40.21390625 7.23828125 40.1953125 C4.4912997 40.14835555 1.74609953 40.08269468 -1 40 C-1 38.35 -1 36.7 -1 35 C0.485 34.505 0.485 34.505 2 34 C2.33 24.43 2.66 14.86 3 5 C2.01 5 1.02 5 0 5 C0 3.35 0 1.7 0 0 Z " fill="#F6F6F6" transform="translate(300,340)"/>
<path d="M0 0 C3.72901814 -0.08736736 7.45777165 -0.14051482 11.1875 -0.1875 C12.24259766 -0.21263672 13.29769531 -0.23777344 14.38476562 -0.26367188 C15.91713867 -0.27817383 15.91713867 -0.27817383 17.48046875 -0.29296875 C18.41785889 -0.3086792 19.35524902 -0.32438965 20.32104492 -0.34057617 C23.55787288 0.07092251 25.3796095 1.0816351 28 3 C30.50304378 6.75456567 30.45280074 8.54745934 30 13 C28 16.4375 28 16.4375 26 19 C26.61875 19.268125 27.2375 19.53625 27.875 19.8125 C30 21 30 21 32 24 C32.46170489 28.98641282 32.18538905 32.07135351 29 36 C23.41163716 41.07609625 17.89296879 40.47257619 10.625 40.25 C9.50738281 40.23195313 8.38976562 40.21390625 7.23828125 40.1953125 C4.4912997 40.14835555 1.74609953 40.08269468 -1 40 C-1 38.35 -1 36.7 -1 35 C0.485 34.505 0.485 34.505 2 34 C2.33 24.43 2.66 14.86 3 5 C2.01 5 1.02 5 0 5 C0 3.35 0 1.7 0 0 Z " fill="#F6F6F6" transform="translate(180,340)"/>
<path d="M0 0 C3.72901814 -0.08736736 7.45777165 -0.14051482 11.1875 -0.1875 C12.24259766 -0.21263672 13.29769531 -0.23777344 14.38476562 -0.26367188 C15.91713867 -0.27817383 15.91713867 -0.27817383 17.48046875 -0.29296875 C18.41785889 -0.3086792 19.35524902 -0.32438965 20.32104492 -0.34057617 C23.55787288 0.07092251 25.3796095 1.0816351 28 3 C30.50304378 6.75456567 30.45280074 8.54745934 30 13 C28 16.4375 28 16.4375 26 19 C26.61875 19.268125 27.2375 19.53625 27.875 19.8125 C30 21 30 21 32 24 C32.46170489 28.98641282 32.18538905 32.07135351 29 36 C23.41163716 41.07609625 17.89296879 40.47257619 10.625 40.25 C9.50738281 40.23195313 8.38976562 40.21390625 7.23828125 40.1953125 C4.4912997 40.14835555 1.74609953 40.08269468 -1 40 C-1 38.35 -1 36.7 -1 35 C0.485 34.505 0.485 34.505 2 34 C2.33 24.43 2.66 14.86 3 5 C2.01 5 1.02 5 0 5 C0 3.35 0 1.7 0 0 Z " fill="#F6F6F6" transform="translate(65,340)"/>
<path d="M0 0 C4.04128452 -0.1457733 8.08188906 -0.23423181 12.125 -0.3125 C13.83816406 -0.3753418 13.83816406 -0.3753418 15.5859375 -0.43945312 C25.0955845 -0.57767474 25.0955845 -0.57767474 28.76171875 2.21484375 C31.76588425 5.9530113 31.79892181 7.8633846 31.54296875 12.484375 C30.66493741 16.55237632 28.7094014 18.88418839 26 22 C26.433125 22.77085937 26.86625 23.54171875 27.3125 24.3359375 C27.869375 25.33882813 28.42625 26.34171875 29 27.375 C29.556875 28.37273437 30.11375 29.37046875 30.6875 30.3984375 C32 33 32 33 32 35 C33.32 35 34.64 35 36 35 C36 36.65 36 38.3 36 40 C30.72 40 25.44 40 20 40 C20 38.35 20 36.7 20 35 C20.99 35 21.98 35 23 35 C21.68 31.7 20.36 28.4 19 25 C16.36 24.67 13.72 24.34 11 24 C11 27.63 11 31.26 11 35 C12.32 35 13.64 35 15 35 C15 36.65 15 38.3 15 40 C10.05 40 5.1 40 0 40 C0 38.35 0 36.7 0 35 C1.485 34.505 1.485 34.505 3 34 C3.33 24.43 3.66 14.86 4 5 C2.68 5 1.36 5 0 5 C0 3.35 0 1.7 0 0 Z " fill="#F9F9F9" transform="translate(249,340)"/>
<path d="M0 0 C4.04128452 -0.1457733 8.08188906 -0.23423181 12.125 -0.3125 C13.83816406 -0.3753418 13.83816406 -0.3753418 15.5859375 -0.43945312 C25.0955845 -0.57767474 25.0955845 -0.57767474 28.76171875 2.21484375 C31.76588425 5.9530113 31.79892181 7.8633846 31.54296875 12.484375 C30.66493741 16.55237632 28.7094014 18.88418839 26 22 C26.433125 22.77085937 26.86625 23.54171875 27.3125 24.3359375 C27.869375 25.33882813 28.42625 26.34171875 29 27.375 C29.556875 28.37273437 30.11375 29.37046875 30.6875 30.3984375 C32 33 32 33 32 35 C33.32 35 34.64 35 36 35 C36 36.65 36 38.3 36 40 C30.72 40 25.44 40 20 40 C20 38.35 20 36.7 20 35 C20.99 35 21.98 35 23 35 C21.68 31.7 20.36 28.4 19 25 C16.36 24.67 13.72 24.34 11 24 C11 27.63 11 31.26 11 35 C12.32 35 13.64 35 15 35 C15 36.65 15 38.3 15 40 C10.05 40 5.1 40 0 40 C0 38.35 0 36.7 0 35 C1.485 34.505 1.485 34.505 3 34 C3.33 24.43 3.66 14.86 4 5 C2.68 5 1.36 5 0 5 C0 3.35 0 1.7 0 0 Z " fill="#F9F9F9" transform="translate(141,340)"/>
<path d="M0 0 C0 6.93 0 13.86 0 21 C-1.66804688 21.70125 -3.33609375 22.4025 -5.0546875 23.125 C-7.32831019 24.08289389 -9.60173405 25.0412598 -11.875 26 C-13.6394043 26.74407104 -13.6394043 26.74407104 -15.43945312 27.50317383 C-23.25206013 30.80863037 -31.02719974 34.18414985 -38.74169922 37.71289062 C-43.79098879 40 -43.79098879 40 -46 40 C-46 33.4 -46 26.8 -46 20 C-35.80427918 15.12871117 -25.49044025 10.55838488 -15.125 6.0625 C-14.43831238 5.76397125 -13.75162476 5.4654425 -13.04412842 5.15786743 C-11.07462721 4.30227889 -9.10396092 3.44944196 -7.1328125 2.59765625 C-5.97668457 2.09758057 -4.82055664 1.59750488 -3.62939453 1.08227539 C-1 0 -1 0 0 0 Z " fill="#272727" transform="translate(409,163)"/>
<path d="M0 0 C0 6.6 0 13.2 0 20 C-9.14353318 24.66082698 -18.33690245 29.027688 -27.76367188 33.08227539 C-29.79291454 33.95597709 -31.81840709 34.83800408 -33.84375 35.72070312 C-35.14041433 36.28173715 -36.43728135 36.842303 -37.734375 37.40234375 C-39.47025879 38.15245728 -39.47025879 38.15245728 -41.24121094 38.91772461 C-44 40 -44 40 -46 40 C-46 33.4 -46 26.8 -46 20 C-35.80427918 15.12871117 -25.49044025 10.55838488 -15.125 6.0625 C-14.43831238 5.76397125 -13.75162476 5.4654425 -13.04412842 5.15786743 C-11.07462721 4.30227889 -9.10396092 3.44944196 -7.1328125 2.59765625 C-5.97668457 2.09758057 -4.82055664 1.59750488 -3.62939453 1.08227539 C-1 0 -1 0 0 0 Z " fill="#272727" transform="translate(137,163)"/>
<path d="M0 0 C4.62 0 9.24 0 14 0 C17.22791819 7.4339934 20.11547004 14.92194688 22.8125 22.5625 C23.12646729 23.44325195 23.44043457 24.32400391 23.76391602 25.23144531 C24.19982056 26.48006348 24.19982056 26.48006348 24.64453125 27.75390625 C24.90596924 28.49970947 25.16740723 29.2455127 25.43676758 30.01391602 C26 32 26 32 26 35 C27.32 35 28.64 35 30 35 C30 36.65 30 38.3 30 40 C24.72 40 19.44 40 14 40 C14 38.35 14 36.7 14 35 C15.32 35 16.64 35 18 35 C17.67 33.02 17.34 31.04 17 29 C12.05 29 7.1 29 2 29 C1.67 30.98 1.34 32.96 1 35 C1.99 35 2.98 35 4 35 C4 36.65 4 38.3 4 40 C-0.62 40 -5.24 40 -10 40 C-10 38.35 -10 36.7 -10 35 C-8.515 34.505 -8.515 34.505 -7 34 C-5.63613047 31.11970617 -5.63613047 31.11970617 -4.51953125 27.55859375 C-4.30181564 26.91632339 -4.08410004 26.27405304 -3.85978699 25.61231995 C-3.16614533 23.55761547 -2.48920414 21.4978374 -1.8125 19.4375 C-1.34548944 18.04455649 -0.8774037 16.65197297 -0.40820312 15.25976562 C0.74037562 11.84393475 1.87403941 8.42336236 3 5 C2.01 5 1.02 5 0 5 C0 3.35 0 1.7 0 0 Z " fill="#F8F8F8" transform="translate(109,340)"/>
<path d="M0 0 C0 5.94 0 11.88 0 18 C-5.74464423 20.55161025 -11.49216329 23.09658754 -17.24243164 25.63549805 C-19.19766103 26.49989648 -21.15209653 27.366093 -23.10571289 28.23413086 C-25.91605503 29.48245726 -28.72920102 30.72426157 -31.54296875 31.96484375 C-32.41398727 32.35341049 -33.2850058 32.74197723 -34.18241882 33.14231873 C-35.002892 33.50261673 -35.82336517 33.86291473 -36.66870117 34.23413086 C-37.38595871 34.55167831 -38.10321625 34.86922577 -38.84220886 35.19639587 C-41 36 -41 36 -46 37 C-46 31.39 -46 25.78 -46 20 C-36.85646682 15.33917302 -27.66309755 10.972312 -18.23632812 6.91772461 C-16.20708546 6.04402291 -14.18159291 5.16199592 -12.15625 4.27929688 C-10.85958567 3.71826285 -9.56271865 3.157697 -8.265625 2.59765625 C-7.10836914 2.09758057 -5.95111328 1.59750488 -4.75878906 1.08227539 C-2 0 -2 0 0 0 Z " fill="#282828" transform="translate(409,210)"/>
<path d="M0 0 C0 5.94 0 11.88 0 18 C-5.42351986 20.39018097 -10.84959695 22.77442427 -16.27807617 25.15332031 C-18.12253255 25.96258465 -19.9662931 26.77343692 -21.80932617 27.5859375 C-24.46609889 28.7568403 -27.12536235 29.92191672 -29.78515625 31.0859375 C-30.60210464 31.44746918 -31.41905304 31.80900085 -32.26075745 32.18148804 C-33.43117836 32.69179062 -33.43117836 32.69179062 -34.62524414 33.21240234 C-35.30253067 33.50996429 -35.9798172 33.80752625 -36.67762756 34.11410522 C-39.71695258 35.27348953 -42.87221292 36.10634655 -46 37 C-46 31.39 -46 25.78 -46 20 C-36.85646682 15.33917302 -27.66309755 10.972312 -18.23632812 6.91772461 C-16.20708546 6.04402291 -14.18159291 5.16199592 -12.15625 4.27929688 C-10.85958567 3.71826285 -9.56271865 3.157697 -8.265625 2.59765625 C-7.10836914 2.09758057 -5.95111328 1.59750488 -4.75878906 1.08227539 C-2 0 -2 0 0 0 Z " fill="#272727" transform="translate(137,210)"/>
<path d="M0 0 C8.53931002 5.04982453 13.3931429 11.6169287 16.5 20.9375 C17.14844562 27.84593987 16.09626897 33.53955146 13.5 39.9375 C14.49 40.4325 14.49 40.4325 15.5 40.9375 C16.1875 44.4375 16.1875 44.4375 16.5 47.9375 C15.5 48.9375 15.5 48.9375 13.25376892 49.05775452 C12.26115555 49.05553391 11.26854218 49.05331329 10.24584961 49.05102539 C9.12476303 49.05094986 8.00367645 49.05087433 6.84861755 49.05079651 C5.01896202 49.04305458 5.01896202 49.04305458 3.15234375 49.03515625 C1.91078018 49.0337413 0.66921661 49.03232635 -0.60997009 49.03086853 C-3.91605491 49.02620591 -7.22207146 49.01721497 -10.52813721 49.00616455 C-13.8996115 48.99594827 -17.27109283 48.99137045 -20.64257812 48.98632812 C-27.26173775 48.97527395 -33.88086493 48.95851736 -40.5 48.9375 C-41.18769762 45.95580375 -41.53304057 44.10637404 -40.9375 41.0625 C-40.39577043 37.19300304 -41.42234394 34.67760045 -42.5 30.9375 C-43.64864591 22.41163529 -40.95543762 14.76509394 -36.375 7.625 C-26.56601397 -1.54426955 -12.73860195 -5.98655408 0 0 Z M-26.5 2.9375 C-28.0159375 3.741875 -28.0159375 3.741875 -29.5625 4.5625 C-34.3112374 8.4019047 -38.50174506 13.76850882 -39.5 19.9375 C-39.64338806 22.22619404 -39.72041303 24.51950956 -39.75 26.8125 C-39.77578125 28.00617188 -39.8015625 29.19984375 -39.828125 30.4296875 C-39.6584706 34.52547791 -39.6584706 34.52547791 -36.5 39.9375 C-20.99 39.9375 -5.48 39.9375 10.5 39.9375 C13.19532055 34.54685889 13.8986751 33.0057372 13.8125 27.4375 C13.80669922 25.81328125 13.80669922 25.81328125 13.80078125 24.15625 C13.09119461 16.56275142 9.78725024 10.834975 4.1875 5.75 C-4.70667958 -1.38406825 -16.39014185 -2.8395618 -26.5 2.9375 Z " fill="#CECECE" transform="translate(126.5,109.0625)"/>
<path d="M0 0 C7.49565279 3.98162275 12.86840624 10.53441938 16.25 18.1875 C18.20725903 26.16709452 17.11893511 32.96807062 14.0625 40.5 C15.0525 40.83 16.0425 41.16 17.0625 41.5 C17.10491723 43.83294775 17.10342937 46.16702567 17.0625 48.5 C16.0625 49.5 16.0625 49.5 13.81626892 49.62025452 C12.82365555 49.61803391 11.83104218 49.61581329 10.80834961 49.61352539 C9.68726303 49.61344986 8.56617645 49.61337433 7.41111755 49.61329651 C5.58146202 49.60555458 5.58146202 49.60555458 3.71484375 49.59765625 C2.47328018 49.5962413 1.23171661 49.59482635 -0.04747009 49.59336853 C-3.35355491 49.58870591 -6.65957146 49.57971497 -9.96563721 49.56866455 C-13.3371115 49.55844827 -16.70859283 49.55387045 -20.08007812 49.54882812 C-26.69923775 49.53777395 -33.31836493 49.52101736 -39.9375 49.5 C-40.72172696 45.99711957 -40.82801213 43.9446942 -39.9375 40.5 C-40.24556453 38.42352124 -40.24556453 38.42352124 -40.875 36.3125 C-43.02973267 27.29509136 -42.28712876 19.53596469 -37.75390625 11.3671875 C-29.67921265 -0.6647922 -13.50647305 -5.36947353 0 0 Z M-35.34375 12.12109375 C-38.63203188 17.02933803 -39.23084901 21.67809899 -39.25 27.5 C-39.26675781 28.675625 -39.28351563 29.85125 -39.30078125 31.0625 C-39.07764142 35.09655646 -39.07764142 35.09655646 -35.9375 40.5 C-20.4275 40.5 -4.9175 40.5 11.0625 40.5 C14.43642382 32.62751108 15.77205955 25.40073782 13.3359375 16.9921875 C9.92631309 9.70168977 3.98398814 5.26482619 -2.9375 1.5 C-16.10503493 -2.88917831 -26.73667969 2.26176526 -35.34375 12.12109375 Z " fill="#D0D0D0" transform="translate(397.9375,108.5)"/>
<path d="M0 0 C2.16612561 0.0031502 4.33086989 -0.02029988 6.49682617 -0.0456543 C13.92846896 -0.08063101 20.50311601 0.14583031 27.36987305 3.31567383 C28.02987305 4.30567383 28.68987305 5.29567383 29.36987305 6.31567383 C26.43158708 8.81865817 24.19084544 9.78498322 20.36987305 10.31567383 C27.33780286 9.65206146 31.69681338 6.34819962 36.36987305 1.31567383 C36.09954791 5.77603855 34.22227555 8.4508483 31.3190918 11.66333008 C27.85633066 14.59869674 23.78390731 16.32506548 19.36987305 17.31567383 C17.33081055 16.97583008 17.33081055 16.97583008 15.36987305 16.31567383 C14.6634668 16.13907227 13.95706055 15.9624707 13.22924805 15.78051758 C11.27612305 15.29223633 9.32299805 14.80395508 7.36987305 14.31567383 C7.86487305 15.30567383 7.86487305 15.30567383 8.36987305 16.31567383 C7.48299805 15.94442383 6.59612305 15.57317383 5.68237305 15.19067383 C1.96161299 14.20783155 0.6954917 14.55505219 -2.63012695 16.31567383 C-2.63012695 15.65567383 -2.63012695 14.99567383 -2.63012695 14.31567383 C-4.94012695 14.97567383 -7.25012695 15.63567383 -9.63012695 16.31567383 C-9.63012695 16.64567383 -9.63012695 16.97567383 -9.63012695 17.31567383 C-16.9256433 16.9248426 -22.22684383 14.99315512 -27.27856445 9.53442383 C-28.69262695 7.69067383 -28.69262695 7.69067383 -30.63012695 4.31567383 C-30.30012695 3.32567383 -29.97012695 2.33567383 -29.63012695 1.31567383 C-29.13512695 2.05817383 -28.64012695 2.80067383 -28.13012695 3.56567383 C-25.07256263 6.92899458 -21.88013194 8.753557 -17.63012695 10.31567383 C-16.64012695 10.31567383 -15.65012695 10.31567383 -14.63012695 10.31567383 C-15.74387695 10.04754883 -16.85762695 9.77942383 -18.00512695 9.50317383 C-21.63012695 8.31567383 -21.63012695 8.31567383 -23.63012695 5.31567383 C-16.65841122 -0.58347025 -8.63750909 -0.02627157 0 0 Z " fill="#2C2C2C" transform="translate(245.630126953125,264.684326171875)"/>
<path d="M0 0 C9.24 0 18.48 0 28 0 C28 3.3 28 6.6 28 10 C26.02 10 24.04 10 22 10 C22 8.68 22 7.36 22 6 C18.37 6 14.74 6 11 6 C11 9.3 11 12.6 11 16 C15.62 16 20.24 16 25 16 C25 17.98 25 19.96 25 22 C20.38 22 15.76 22 11 22 C11 25.96 11 29.92 11 34 C14.63 34 18.26 34 22 34 C22 32.35 22 30.7 22 29 C24.31 29 26.62 29 29 29 C29 32.63 29 36.26 29 40 C19.43 40 9.86 40 0 40 C0 38.35 0 36.7 0 35 C1.485 34.505 1.485 34.505 3 34 C3.33 24.43 3.66 14.86 4 5 C2.68 5 1.36 5 0 5 C0 3.35 0 1.7 0 0 Z " fill="#FBFBFB" transform="translate(216,340)"/>
<path d="M0 0 C1.01964844 -0.00515625 2.03929687 -0.0103125 3.08984375 -0.015625 C6.11582204 0.25476465 8.32075647 0.97758864 11.0625 2.25 C11.0625 5.55 11.0625 8.85 11.0625 12.25 C9.0825 12.25 7.1025 12.25 5.0625 12.25 C4.7325 10.6 4.4025 8.95 4.0625 7.25 C0.0524066 7.07135369 0.0524066 7.07135369 -3.9375 7.25 C-4.5975 7.91 -5.2575 8.57 -5.9375 9.25 C-6.06814468 11.78790548 -6.06814468 11.78790548 -4.9375 14.25 C-2.35565475 15.77223554 -2.35565475 15.77223554 0.8125 16.75 C6.45408471 18.87649507 10.27962869 20.68425738 13.0625 26.25 C13.45650788 30.34768199 13.29638098 32.76352757 11.5 36.5 C7.85753888 40.60944332 4.6731155 42.01403332 -0.66015625 42.49609375 C-5.91527824 42.61633207 -8.91599169 42.25860332 -13.9375 40.25 C-13.9375 36.62 -13.9375 32.99 -13.9375 29.25 C-11.9575 29.25 -9.9775 29.25 -7.9375 29.25 C-7.6075 30.9 -7.2775 32.55 -6.9375 34.25 C-3.3075 34.25 0.3225 34.25 4.0625 34.25 C4.0625 31.61 4.0625 28.97 4.0625 26.25 C2.99322266 26.02957031 2.99322266 26.02957031 1.90234375 25.8046875 C-4.29073363 24.35435713 -10.35172671 22.9117473 -13.9375 17.25 C-15.06783281 12.35189114 -14.72040005 8.59211437 -12.1875 4.25 C-8.20248528 0.70776469 -5.32728158 -0.02687153 0 0 Z " fill="#F5F5F5" transform="translate(422.9375,338.75)"/>
<path d="M0 0 C1.1240625 -0.00515625 2.248125 -0.0103125 3.40625 -0.015625 C6.5 0.25 6.5 0.25 10.5 2.25 C10.5 5.55 10.5 8.85 10.5 12.25 C8.52 12.25 6.54 12.25 4.5 12.25 C4.17 10.6 3.84 8.95 3.5 7.25 C-0.50254456 7.15818866 -0.50254456 7.15818866 -4.5 7.25 C-5.85618499 8.37534105 -5.85618499 8.37534105 -5.5625 11.3125 C-5.541875 12.281875 -5.52125 13.25125 -5.5 14.25 C-4.53578125 14.62511719 -3.5715625 15.00023437 -2.578125 15.38671875 C-1.30177696 15.90288891 -0.02575204 16.41985855 1.25 16.9375 C1.88421875 17.18177734 2.5184375 17.42605469 3.171875 17.67773438 C7.49572504 19.45681851 10.03321604 21.26519514 12.5 25.25 C13.42779045 29.10727053 12.83940354 32.44614952 11.3125 36.0625 C8.53265855 39.41748107 5.58797026 40.88734325 1.5 42.25 C-4.18895404 42.67104135 -9.17409783 42.49248512 -14.5 40.25 C-14.5 36.95 -14.5 33.65 -14.5 30.25 C-12.52 30.25 -10.54 30.25 -8.5 30.25 C-8.17 31.57 -7.84 32.89 -7.5 34.25 C-4.2 34.25 -0.9 34.25 2.5 34.25 C2.83 31.94 3.16 29.63 3.5 27.25 C2.69175781 26.93546875 1.88351562 26.6209375 1.05078125 26.296875 C-0.01785156 25.86890625 -1.08648437 25.4409375 -2.1875 25 C-3.24324219 24.58234375 -4.29898437 24.1646875 -5.38671875 23.734375 C-8.55715109 22.22275105 -10.93127323 20.63822165 -13.5 18.25 C-14.73829052 14.53512845 -15.0503822 11.11021488 -14.5 7.25 C-10.76516591 1.11420114 -6.95460216 -0.03190184 0 0 Z " fill="#F5F5F5" transform="translate(391.5,338.75)"/>
<path d="M0 0 C0 5.61 0 11.22 0 17 C-14.55313854 26.15703099 -29.41544327 24.70648566 -46 24 C-45.75854492 21.64448547 -45.75854492 21.64448547 -45 19 C-43.21606445 17.67741394 -43.21606445 17.67741394 -40.86328125 16.68823242 C-39.98567139 16.30821579 -39.10806152 15.92819916 -38.20385742 15.53666687 C-37.24970947 15.14687149 -36.29556152 14.75707611 -35.3125 14.35546875 C-34.33966064 13.94081863 -33.36682129 13.52616852 -32.36450195 13.09895325 C-29.25033429 11.77693363 -26.12556798 10.48230276 -23 9.1875 C-20.89249841 8.29664866 -18.78571711 7.40409126 -16.6796875 6.50976562 C-12.83625591 4.88451792 -8.99086961 3.26447717 -5.13671875 1.66479492 C-4.36030029 1.34234299 -3.58388184 1.01989105 -2.78393555 0.68766785 C-1 0 -1 0 0 0 Z " fill="#282828" transform="translate(409,254)"/>
<path d="M0 0 C0 5.61 0 11.22 0 17 C-14.55313854 26.15703099 -29.41544327 24.70648566 -46 24 C-46.02832031 21.75854492 -46.02832031 21.75854492 -45 19 C-42.38549345 17.17846008 -39.48728427 16.06375801 -36.546875 14.86328125 C-35.69450256 14.49776657 -34.84213013 14.13225189 -33.96392822 13.75566101 C-31.23326972 12.58974452 -28.49217487 11.45102871 -25.75 10.3125 C-23.9172249 9.53495415 -22.08518325 8.75567701 -20.25390625 7.97460938 C-1.49895501 0 -1.49895501 0 0 0 Z " fill="#282828" transform="translate(137,254)"/>
<path d="M0 0 C2.89219856 2.29381265 3.9803324 4.94601422 4.8125 8.4375 C5.46233755 14.99734659 5.66184302 20.81153713 1.8125 26.4375 C-0.58036884 28.83036884 -1.28197094 28.75800616 -4.5625 28.8125 C-7.83780939 28.73889754 -8.89714243 28.64596184 -11.625 26.6875 C-15.58481314 20.98536908 -15.81746524 16.28958346 -15.1875 9.4375 C-14.30737889 5.87204588 -12.91087706 3.21076514 -10.375 0.5 C-6.81605346 -1.22863117 -3.76956528 -0.96931679 0 0 Z " fill="#292929" transform="translate(359.1875,345.5625)"/>
<path d="M0 0 C0.33 0 0.66 0 1 0 C1.72527151 3.3048303 2.15413042 6.44863755 2.28125 9.828125 C2.33732422 11.15070313 2.33732422 11.15070313 2.39453125 12.5 C2.46544213 14.34893548 2.53574462 16.19789439 2.60546875 18.046875 C2.66154297 19.36171875 2.66154297 19.36171875 2.71875 20.703125 C2.74904297 21.50395508 2.77933594 22.30478516 2.81054688 23.12988281 C2.80223286 25.01297853 2.80223286 25.01297853 4 26 C4.9242871 40.80784959 -1.85608561 55.42243501 -9 68 C-9.79857422 69.45792969 -9.79857422 69.45792969 -10.61328125 70.9453125 C-16.93676301 81.70935342 -26.38074819 92.32230832 -37 99 C-38.05574219 99.66644531 -39.11148438 100.33289063 -40.19921875 101.01953125 C-43.44613624 103.0465771 -46.7184788 105.0294066 -50 107 C-51.21816406 107.78117187 -51.21816406 107.78117187 -52.4609375 108.578125 C-62.08068372 113.96518288 -73.17742595 115.88272348 -84 117 C-84 116.34 -84 115.68 -84 115 C-86.64 115 -89.28 115 -92 115 C-88.73786528 112.82524352 -86.13938755 113.02160437 -82.32421875 113.11328125 C-77.7096659 112.88837027 -73.38488211 111.36990976 -69 110 C-68.00355469 109.69835937 -67.00710938 109.39671875 -65.98046875 109.0859375 C-40.63662962 101.08261988 -21.12259655 83.28913523 -8.75317383 59.86206055 C-1.25727965 44.89886066 0.16834179 30.45696046 0.0625 13.9375 C0.05747314 12.58138187 0.05291234 11.22526192 0.04882812 9.86914062 C0.03712079 6.57938006 0.02072211 3.28971406 0 0 Z " fill="#D4C7E4" transform="translate(347,190)"/>
<path d="M0 0 C0.99261337 0.00222061 1.98522675 0.00444122 3.00791931 0.00672913 C4.12900589 0.00680466 5.25009247 0.00688019 6.40515137 0.00695801 C8.2348069 0.01469994 8.2348069 0.01469994 10.10142517 0.02259827 C11.96377052 0.02472069 11.96377052 0.02472069 13.86373901 0.02688599 C17.16982383 0.03154861 20.47584039 0.04053955 23.78190613 0.05158997 C27.15338042 0.06180625 30.52486175 0.06638407 33.89634705 0.07142639 C40.51550667 0.08248056 47.13463385 0.09923715 53.75376892 0.12025452 C54.13595659 1.77640109 54.46771994 3.44482476 54.75376892 5.12025452 C53.75376892 6.12025452 53.75376892 6.12025452 51.50753784 6.24050903 C50.51492447 6.23828842 49.5223111 6.23606781 48.49961853 6.23377991 C47.37853195 6.23370438 46.25744537 6.23362885 45.10238647 6.23355103 C43.27273094 6.2258091 43.27273094 6.2258091 41.40611267 6.21791077 C40.1645491 6.21649582 38.92298553 6.21508087 37.64379883 6.21362305 C34.33771401 6.20896042 31.03169746 6.19996948 27.72563171 6.18891907 C24.35415742 6.17870279 20.98267609 6.17412496 17.6111908 6.16908264 C10.99203118 6.15802847 4.37290399 6.14127188 -2.24623108 6.12025452 C-2.62841875 4.46410794 -2.9601821 2.79568427 -3.24623108 1.12025452 C-2.24623108 0.12025452 -2.24623108 0.12025452 0 0 Z " fill="#2E2E2E" transform="translate(360.24623107910156,281.87974548339844)"/>
<path d="M0 0 C0.99261337 0.00222061 1.98522675 0.00444122 3.00791931 0.00672913 C4.12900589 0.00680466 5.25009247 0.00688019 6.40515137 0.00695801 C8.2348069 0.01469994 8.2348069 0.01469994 10.10142517 0.02259827 C11.96377052 0.02472069 11.96377052 0.02472069 13.86373901 0.02688599 C17.16982383 0.03154861 20.47584039 0.04053955 23.78190613 0.05158997 C27.15338042 0.06180625 30.52486175 0.06638407 33.89634705 0.07142639 C40.51550667 0.08248056 47.13463385 0.09923715 53.75376892 0.12025452 C54.13595659 1.77640109 54.46771994 3.44482476 54.75376892 5.12025452 C53.75376892 6.12025452 53.75376892 6.12025452 51.50753784 6.24050903 C50.51492447 6.23828842 49.5223111 6.23606781 48.49961853 6.23377991 C47.37853195 6.23370438 46.25744537 6.23362885 45.10238647 6.23355103 C43.27273094 6.2258091 43.27273094 6.2258091 41.40611267 6.21791077 C40.1645491 6.21649582 38.92298553 6.21508087 37.64379883 6.21362305 C34.33771401 6.20896042 31.03169746 6.19996948 27.72563171 6.18891907 C24.35415742 6.17870279 20.98267609 6.17412496 17.6111908 6.16908264 C10.99203118 6.15802847 4.37290399 6.14127188 -2.24623108 6.12025452 C-2.62841875 4.46410794 -2.9601821 2.79568427 -3.24623108 1.12025452 C-2.24623108 0.12025452 -2.24623108 0.12025452 0 0 Z " fill="#2E2E2E" transform="translate(88.24623107910156,281.87974548339844)"/>
<path d="M0 0 C0.99261337 0.00222061 1.98522675 0.00444122 3.00791931 0.00672913 C4.12900589 0.00680466 5.25009247 0.00688019 6.40515137 0.00695801 C8.2348069 0.01469994 8.2348069 0.01469994 10.10142517 0.02259827 C11.96377052 0.02472069 11.96377052 0.02472069 13.86373901 0.02688599 C17.16982383 0.03154861 20.47584039 0.04053955 23.78190613 0.05158997 C27.15338042 0.06180625 30.52486175 0.06638407 33.89634705 0.07142639 C40.51550667 0.08248056 47.13463385 0.09923715 53.75376892 0.12025452 C54.13595659 1.77640109 54.46771994 3.44482476 54.75376892 5.12025452 C53.75376892 6.12025452 53.75376892 6.12025452 51.50753784 6.24050903 C50.51492447 6.23828842 49.5223111 6.23606781 48.49961853 6.23377991 C47.37853195 6.23370438 46.25744537 6.23362885 45.10238647 6.23355103 C43.27273094 6.2258091 43.27273094 6.2258091 41.40611267 6.21791077 C40.1645491 6.21649582 38.92298553 6.21508087 37.64379883 6.21362305 C34.33771401 6.20896042 31.03169746 6.19996948 27.72563171 6.18891907 C24.35415742 6.17870279 20.98267609 6.17412496 17.6111908 6.16908264 C10.99203118 6.15802847 4.37290399 6.14127188 -2.24623108 6.12025452 C-2.62841875 4.46410794 -2.9601821 2.79568427 -3.24623108 1.12025452 C-2.24623108 0.12025452 -2.24623108 0.12025452 0 0 Z " fill="#2E2E2E" transform="translate(360.24623107910156,151.87974548339844)"/>
<path d="M0 0 C0.99261337 0.00222061 1.98522675 0.00444122 3.00791931 0.00672913 C4.12900589 0.00680466 5.25009247 0.00688019 6.40515137 0.00695801 C8.2348069 0.01469994 8.2348069 0.01469994 10.10142517 0.02259827 C11.96377052 0.02472069 11.96377052 0.02472069 13.86373901 0.02688599 C17.16982383 0.03154861 20.47584039 0.04053955 23.78190613 0.05158997 C27.15338042 0.06180625 30.52486175 0.06638407 33.89634705 0.07142639 C40.51550667 0.08248056 47.13463385 0.09923715 53.75376892 0.12025452 C54.13595659 1.77640109 54.46771994 3.44482476 54.75376892 5.12025452 C53.75376892 6.12025452 53.75376892 6.12025452 51.50753784 6.24050903 C50.51492447 6.23828842 49.5223111 6.23606781 48.49961853 6.23377991 C47.37853195 6.23370438 46.25744537 6.23362885 45.10238647 6.23355103 C43.27273094 6.2258091 43.27273094 6.2258091 41.40611267 6.21791077 C40.1645491 6.21649582 38.92298553 6.21508087 37.64379883 6.21362305 C34.33771401 6.20896042 31.03169746 6.19996948 27.72563171 6.18891907 C24.35415742 6.17870279 20.98267609 6.17412496 17.6111908 6.16908264 C10.99203118 6.15802847 4.37290399 6.14127188 -2.24623108 6.12025452 C-2.62841875 4.46410794 -2.9601821 2.79568427 -3.24623108 1.12025452 C-2.24623108 0.12025452 -2.24623108 0.12025452 0 0 Z " fill="#2E2E2E" transform="translate(88.24623107910156,151.87974548339844)"/>
<path d="M0 0 C14.85 0 29.7 0 45 0 C37.78480326 7.21519674 31.47242958 8.13310375 21.4375 8.4375 C12.36679232 8.24352356 6.43292098 6.43292098 0 0 Z " fill="#2A2A2A" transform="translate(363,290)"/>
<path d="M0 0 C14.85 0 29.7 0 45 0 C37.78480326 7.21519674 31.47242958 8.13310375 21.4375 8.4375 C12.36679232 8.24352356 6.43292098 6.43292098 0 0 Z " fill="#292929" transform="translate(91,290)"/>
<path d="M0 0 C-1.23697917 1.43229167 -2.47395833 2.86458333 -3.7109375 4.296875 C-6.99479249 8.63554402 -7.22615195 11.78779467 -7.125 17.25 C-7.09792969 19.14492187 -7.09792969 19.14492187 -7.0703125 21.078125 C-7.04710938 22.04234375 -7.02390625 23.0065625 -7 24 C-7.54269531 24.25394531 -8.08539063 24.50789063 -8.64453125 24.76953125 C-9.35996094 25.11371094 -10.07539062 25.45789063 -10.8125 25.8125 C-11.52019531 26.14894531 -12.22789063 26.48539063 -12.95703125 26.83203125 C-15.01129035 28.00645471 -16.41616278 29.25628016 -18 31 C-20.15689528 24.52931417 -19.83156719 17.95474288 -17 11.75 C-13.61374007 5.66637543 -7.49673214 -2.24901964 0 0 Z " fill="#F4F4F4" transform="translate(111,114)"/>
<path d="M0 0 C-1.23697917 1.43229167 -2.47395833 2.86458333 -3.7109375 4.296875 C-6.99479249 8.63554402 -7.22615195 11.78779467 -7.125 17.25 C-7.09792969 19.14492187 -7.09792969 19.14492187 -7.0703125 21.078125 C-7.04710937 22.04234375 -7.02390625 23.0065625 -7 24 C-7.56589844 24.26554687 -8.13179688 24.53109375 -8.71484375 24.8046875 C-9.44832031 25.15789062 -10.18179687 25.51109375 -10.9375 25.875 C-11.66839844 26.22304687 -12.39929688 26.57109375 -13.15234375 26.9296875 C-15.16332459 27.8684977 -15.16332459 27.8684977 -16 30 C-16.66 30 -17.32 30 -18 30 C-20.34598524 25.30802953 -19.67282957 19.17569188 -18.1640625 14.296875 C-15.04486867 7.47233011 -8.40744923 -2.52223477 0 0 Z " fill="#F5F5F5" transform="translate(383,114)"/>
<path d="M0 0 C0.75 1.75 0.75 1.75 1 4 C-1.85170644 7.80227525 -5.86921857 9.82546262 -10 12 C-10.65484375 12.36480469 -11.3096875 12.72960937 -11.984375 13.10546875 C-16.38528368 15.46797205 -20.01847911 16.58487326 -25 17 C-25.66 18.65 -26.32 20.3 -27 22 C-33.46895075 23.34261242 -33.46895075 23.34261242 -35.9375 21.75 C-37 20 -37 20 -37 17 C-38.65 17 -40.3 17 -42 17 C-38.05859257 14.44284022 -33.86044111 14.48863095 -29.3125 14.125 C-22.50139702 13.48873451 -17.03934397 12.34553587 -11 9 C-10.01 8.67 -9.02 8.34 -8 8 C-8 7.34 -8 6.68 -8 6 C-24.5 6 -41 6 -58 6 C-58 5.67 -58 5.34 -58 5 C-57.31539703 4.99413376 -56.63079407 4.98826752 -55.92544556 4.98222351 C-48.82046291 4.91844734 -41.71593988 4.8340693 -34.61132812 4.73754883 C-31.95741829 4.70422867 -29.30343637 4.67621915 -26.64941406 4.65356445 C-22.84148341 4.62014908 -19.03421762 4.56783915 -15.2265625 4.51171875 C-13.43745956 4.50213387 -13.43745956 4.50213387 -11.61221313 4.49235535 C-10.51122284 4.47256119 -9.41023254 4.45276703 -8.27587891 4.43237305 C-7.30325104 4.42126999 -6.33062317 4.41016693 -5.32852173 4.39872742 C-4.56010956 4.26714737 -3.79169739 4.13556732 -3 4 C-2.34 3.01 -1.68 2.02 -1 1 C-0.67 0.67 -0.34 0.34 0 0 Z " fill="#D7D7D7" transform="translate(417,283)"/>
<path d="M0 0 C0.99 0 1.98 0 3 0 C2.43061518 3.30243195 1.63383789 4.91109409 -1 7 C-2.99107248 8.01765927 -4.99218823 9.01577854 -7 10 C-7.99 10.680625 -8.98 11.36125 -10 12.0625 C-14.38973966 14.8975402 -17.77731808 16 -23 16 C-23.66 17.65 -24.32 19.3 -25 21 C-27.31 21.33 -29.62 21.66 -32 22 C-35 18.25 -35 18.25 -35 16 C-36.65 16 -38.3 16 -40 16 C-36.60942824 13.96565694 -33.85626217 13.71963141 -29.9375 13.5625 C-21.84960014 13.04334427 -14.51265643 12.01404517 -8 7 C-7.34 7 -6.68 7 -6 7 C-6 6.34 -6 5.68 -6 5 C-22.5 5 -39 5 -56 5 C-56 4.67 -56 4.34 -56 4 C-28.775 3.505 -28.775 3.505 -1 3 C-0.67 2.01 -0.34 1.02 0 0 Z " fill="#D7D7D7" transform="translate(143,284)"/>
<path d="M0 0 C4.47914238 2.60223965 7.35932797 5.80626912 10.4375 9.9375 C6.89999971 9.9375 6.62924106 9.46975602 4.1875 7.125 C-2.4503083 1.29970351 -7.74646349 0.4343292 -16.46484375 0.64453125 C-22.22789318 1.18958637 -26.01938791 3.40396838 -30.5625 6.9375 C-31.2225 6.9375 -31.8825 6.9375 -32.5625 6.9375 C-32.830625 7.494375 -33.09875 8.05125 -33.375 8.625 C-34.5625 10.9375 -34.5625 10.9375 -36.125 13.4375 C-38.66620068 17.85697944 -38.72275344 21.74463912 -38.75 26.8125 C-38.76417969 28.00617188 -38.77835937 29.19984375 -38.79296875 30.4296875 C-38.56254992 33.93674022 -37.82529461 36.67320089 -36.5625 39.9375 C-38.5425 40.4325 -38.5425 40.4325 -40.5625 40.9375 C-43.17147428 29.77947609 -43.55697475 21.51985244 -38.5625 10.9375 C-30.61042753 -1.45837767 -13.33743132 -6.20109231 0 0 Z " fill="#D9D9D9" transform="translate(126.5625,109.0625)"/>
<path d="M0 0 C7.49565279 3.98162275 12.86840624 10.53441938 16.25 18.1875 C17.34656445 22.65810893 17.22537986 26.9212661 17.0625 31.5 C16.0725 31.5 15.0825 31.5 14.0625 31.5 C14.03671875 30.7265625 14.0109375 29.953125 13.984375 29.15625 C13.6102497 22.285949 12.60082147 17.37494886 9.0625 11.5 C8.77246094 10.8090625 8.48242188 10.118125 8.18359375 9.40625 C6.78047873 7.02046558 5.58844457 6.55131394 3.0625 5.5 C2.43472656 5.14679688 1.80695313 4.79359375 1.16015625 4.4296875 C-6.13996319 0.6465162 -13.83403225 -0.04026774 -21.74609375 2.34765625 C-27.96120693 5.13830829 -31.81226497 9.19110378 -35.9375 14.5 C-36.5975 15.16 -37.2575 15.82 -37.9375 16.5 C-37.9375 11.51728592 -36.3127934 8.96490296 -32.9375 5.5 C-23.28346466 -1.38695515 -11.50929972 -4.57550094 0 0 Z " fill="#E5E5E5" transform="translate(397.9375,108.5)"/>
<path d="M0 0 C0.33 0 0.66 0 1 0 C1.66 3.3 2.32 6.6 3 10 C3.66 9.34 4.32 8.68 5 8 C5.268125 9.11375 5.53625 10.2275 5.8125 11.375 C9.37821382 25.50382931 14.89590613 37.84385919 23 50 C21.02 50.495 21.02 50.495 19 51 C11.85147952 39.91435022 5.98981163 28.85910421 2.125 16.1875 C1.90948486 15.49430664 1.69396973 14.80111328 1.47192383 14.08691406 C0.08009057 9.25789292 -0.19123391 5.02270248 0 0 Z " fill="#D3C6E3" transform="translate(149,216)"/>
<path d="M0 0 C9.625 -0.25 9.625 -0.25 13 2 C13.53245789 5.499009 13.40539457 7.33021766 11.5625 10.375 C7.67632781 12.83940188 4.54866791 12.2675687 0 12 C0 8.04 0 4.08 0 0 Z " fill="#2C2C2C" transform="translate(260,346)"/>
<path d="M0 0 C9.625 -0.25 9.625 -0.25 13 2 C13.53245789 5.499009 13.40539457 7.33021766 11.5625 10.375 C7.67632781 12.83940188 4.54866791 12.2675687 0 12 C0 8.04 0 4.08 0 0 Z " fill="#2C2C2C" transform="translate(152,346)"/>
<path d="M0 0 C1.588125 -0.061875 3.17625 -0.12375 4.8125 -0.1875 C6.15248047 -0.23970703 6.15248047 -0.23970703 7.51953125 -0.29296875 C10 0 10 0 11.796875 1.32421875 C13.6795709 3.94654518 13.4557692 5.87472551 13 9 C11.5625 10.875 11.5625 10.875 9 12 C5.95209387 12.23606846 3.06696813 12.13530742 0 12 C0 8.04 0 4.08 0 0 Z " fill="#272727" transform="translate(311,362)"/>
<path d="M0 0 C1.588125 -0.061875 3.17625 -0.12375 4.8125 -0.1875 C6.15248047 -0.23970703 6.15248047 -0.23970703 7.51953125 -0.29296875 C10 0 10 0 11.796875 1.32421875 C13.6795709 3.94654518 13.4557692 5.87472551 13 9 C11.5625 10.875 11.5625 10.875 9 12 C5.95209387 12.23606846 3.06696813 12.13530742 0 12 C0 8.04 0 4.08 0 0 Z " fill="#272727" transform="translate(191,362)"/>
<path d="M0 0 C1.588125 -0.061875 3.17625 -0.12375 4.8125 -0.1875 C6.15248047 -0.23970703 6.15248047 -0.23970703 7.51953125 -0.29296875 C10 0 10 0 11.796875 1.32421875 C13.6795709 3.94654518 13.4557692 5.87472551 13 9 C11.5625 10.875 11.5625 10.875 9 12 C5.95209387 12.23606846 3.06696813 12.13530742 0 12 C0 8.04 0 4.08 0 0 Z " fill="#272727" transform="translate(76,362)"/>
<path d="M0 0 C0.66 0 1.32 0 2 0 C1.979375 0.969375 1.95875 1.93875 1.9375 2.9375 C1.64381501 5.87465895 1.64381501 5.87465895 3 7 C4.56448383 7.12263388 6.13432772 7.17779522 7.70336914 7.20532227 C9.20481224 7.2352401 9.20481224 7.2352401 10.73658752 7.26576233 C12.36937904 7.29083107 12.36937904 7.29083107 14.03515625 7.31640625 C15.14354355 7.33718735 16.25193085 7.35796844 17.39390564 7.37937927 C20.95003808 7.44499623 24.50624703 7.50381596 28.0625 7.5625 C30.46680493 7.60567368 32.87110199 7.64928758 35.27539062 7.69335938 C41.18351185 7.80068992 47.09170991 7.90243331 53 8 C52.67 8.66 52.34 9.32 52 10 C37.48 10 22.96 10 8 10 C15.40606341 13.70918211 15.40606341 13.70918211 23 17 C23 17.33 23 17.66 23 18 C16.49494387 18.69202725 12.33643676 16.67138575 7 13 C6.47148438 12.46632813 5.94296875 11.93265625 5.3984375 11.3828125 C3.98746871 9.7749038 3.98746871 9.7749038 1.375 9.1875 C0.59125 8.795625 -0.1925 8.40375 -1 8 C-1.9375 5 -1.9375 5 -2 2 C-1.34 1.34 -0.68 0.68 0 0 Z " fill="#F3F3F3" transform="translate(84,281)"/>
<path d="M0 0 C4.3677094 0.41357064 6.29367023 3.28697249 8.9375 6.4375 C13.88553881 12.10924609 19.28851593 16.60438655 25.34765625 21.0390625 C28 23 28 23 30 25 C28.3125 25.69921875 28.3125 25.69921875 26 26 C16.4389455 21.04649314 5.89345688 10.99946795 0 2 C0 1.34 0 0.68 0 0 Z " fill="#D9CBE9" transform="translate(169,266)"/>
<path d="M0 0 C3.6716978 0.35997037 5.30061509 1.03338033 8.1875 3.3125 C12.1875 8.6097973 12.1875 8.6097973 12.1875 11.3125 C10.22848546 11.19867347 8.2702662 11.07108875 6.3125 10.9375 C5.22195312 10.86789063 4.13140625 10.79828125 3.0078125 10.7265625 C0.1875 10.3125 0.1875 10.3125 -1.8125 8.3125 C-1.8125 7.3225 -1.8125 6.3325 -1.8125 5.3125 C-2.4725 5.3125 -3.1325 5.3125 -3.8125 5.3125 C-4.1425 5.9725 -4.4725 6.6325 -4.8125 7.3125 C-4.9375 4.9375 -4.9375 4.9375 -4.8125 2.3125 C-2.8125 0.3125 -2.8125 0.3125 0 0 Z " fill="#F0F0F0" transform="translate(233.8125,219.6875)"/>
<path d="M0 0 C0.66 0.66 1.32 1.32 2 2 C1.81927057 4.71094147 1.03313952 5.95845892 -0.6640625 8.0859375 C-3.62275978 10.51028811 -5.46707329 10.58552493 -9.25 10.75 C-10.86648437 10.83507812 -10.86648437 10.83507812 -12.515625 10.921875 C-13.33546875 10.94765625 -14.1553125 10.9734375 -15 11 C-12.14870029 4.1885618 -8.10349019 -1.28919162 0 0 Z " fill="#F1F1F1" transform="translate(266,220)"/>
<path d="M0 0 C7.42857143 -0.28571429 7.42857143 -0.28571429 11 2 C11.35555556 7.33333333 11.35555556 7.33333333 10 9.875 C6.74686316 11.70488947 3.68609891 11.18128355 0 11 C0 7.37 0 3.74 0 0 Z " fill="#2C2C2C" transform="translate(311,345)"/>
<path d="M0 0 C7.42857143 -0.28571429 7.42857143 -0.28571429 11 2 C11.35555556 7.33333333 11.35555556 7.33333333 10 9.875 C6.74686316 11.70488947 3.68609891 11.18128355 0 11 C0 7.37 0 3.74 0 0 Z " fill="#2C2C2C" transform="translate(191,345)"/>
<path d="M0 0 C7.42857143 -0.28571429 7.42857143 -0.28571429 11 2 C11.35555556 7.33333333 11.35555556 7.33333333 10 9.875 C6.74686316 11.70488947 3.68609891 11.18128355 0 11 C0 7.37 0 3.74 0 0 Z " fill="#2C2C2C" transform="translate(76,345)"/>
<path d="M0 0 C2.61167103 2.61167103 3.07131482 4.9721059 4.125 8.5 C4.47820312 9.6653125 4.83140625 10.830625 5.1953125 12.03125 C6 15 6 15 6 17 C2.37 17 -1.26 17 -5 17 C-3.7915371 11.05064416 -2.25422333 5.63555833 0 0 Z " fill="#3C3C3C" transform="translate(118,347)"/>
<path d="M0 0 C0.33 0 0.66 0 1 0 C1.72527151 3.3048303 2.15413042 6.44863755 2.28125 9.828125 C2.31863281 10.70984375 2.35601562 11.5915625 2.39453125 12.5 C2.46544213 14.34893548 2.53574462 16.19789439 2.60546875 18.046875 C2.66154297 19.36171875 2.66154297 19.36171875 2.71875 20.703125 C2.74904297 21.50395508 2.77933594 22.30478516 2.81054688 23.12988281 C2.80223286 25.01297853 2.80223286 25.01297853 4 26 C4.34047664 31.51146569 3.42412556 36.17882016 2 41.4375 C1.80921875 42.16904297 1.6184375 42.90058594 1.421875 43.65429688 C0.95549597 45.43819666 0.47881722 47.21939845 0 49 C-0.99 49 -1.98 49 -3 49 C-4 47 -4 47 -3.4765625 45.15234375 C-2.91563072 43.6934065 -2.3531684 42.23505665 -1.7890625 40.77734375 C0.68149258 32.0814791 0.11984286 22.88739731 0.0625 13.9375 C0.05747314 12.58138187 0.05291234 11.22526192 0.04882812 9.86914062 C0.03712079 6.57938006 0.02072211 3.28971406 0 0 Z " fill="#BFB4CD" transform="translate(347,190)"/>
<path d="M0 0 C0.66 0 1.32 0 2 0 C2.64836042 1.74906531 3.29358784 3.49929219 3.9375 5.25 C4.29714844 6.22453125 4.65679687 7.1990625 5.02734375 8.203125 C6.60995055 12.75391403 7.12053532 16.44651254 7.09765625 21.296875 C7.09443359 22.50214844 7.09121094 23.70742187 7.08789062 24.94921875 C7.07951172 26.20347656 7.07113281 27.45773438 7.0625 28.75 C7.05798828 30.01972656 7.05347656 31.28945312 7.04882812 32.59765625 C7.03704556 35.73181836 7.02059416 38.86588541 7 42 C6.34 41.67 5.68 41.34 5 41 C4.97421875 39.75347656 4.9484375 38.50695312 4.921875 37.22265625 C4.61076629 26.89180713 3.52785694 17.39012286 0.83984375 7.40625 C0 4 0 4 0 0 Z " fill="#E3D5F4" transform="translate(344,174)"/>
<path d="M0 0 C16.83 0.33 33.66 0.66 51 1 C50.67 1.66 50.34 2.32 50 3 C35.48 3 20.96 3 6 3 C13.40606341 6.70918211 13.40606341 6.70918211 21 10 C21 10.33 21 10.66 21 11 C13.15297447 11.83478995 8.16050861 8.25750615 1.9375 3.8125 C1.298125 3.214375 0.65875 2.61625 0 2 C0 1.34 0 0.68 0 0 Z " fill="#FCFCFC" transform="translate(358,288)"/>
<path d="M0 0 C-1.98 0.66 -3.96 1.32 -6 2 C-5.34 2.66 -4.68 3.32 -4 4 C-4.89460938 4.30292969 -5.78921875 4.60585937 -6.7109375 4.91796875 C-14.10367251 7.47941745 -21.10031462 10.26399525 -28 14 C-27.94140625 11.7265625 -27.94140625 11.7265625 -27 9 C-24.60395407 7.51946721 -22.50849912 6.44008877 -19.9375 5.375 C-19.25518311 5.07722656 -18.57286621 4.77945313 -17.86987305 4.47265625 C-15.92068577 3.62936284 -13.96202645 2.81285459 -12 2 C-10.69675781 1.43152344 -10.69675781 1.43152344 -9.3671875 0.8515625 C-5.77528499 -0.63709671 -3.69404197 -1.15891513 0 0 Z " fill="#CCBFDB" transform="translate(226,109)"/>
<path d="M0 0 C0.33 0 0.66 0 1 0 C1.33 11.88 1.66 23.76 2 36 C-4.34294704 26.48557944 -2.90383476 11.73438745 -1 1 C-0.67 0.67 -0.34 0.34 0 0 Z " fill="#E4D5F5" transform="translate(151,193)"/>
<path d="M0 0 C0.66 0 1.32 0 2 0 C2.64834654 1.269553 3.29357815 2.54069706 3.9375 3.8125 C4.29714844 4.52019531 4.65679687 5.22789063 5.02734375 5.95703125 C8.14121643 12.49741442 7.77065503 19.35587746 5.5 26.125 C5.01514777 27.42242865 4.52080741 28.71658174 4 30 C4.66 30.33 5.32 30.66 6 31 C4.35 30.67 2.7 30.34 1 30 C1.48726562 28.71609375 1.48726562 28.71609375 1.984375 27.40625 C3.02543743 23.91468677 3.26728962 21.13082062 3.25 17.5 C3.25773438 15.87578125 3.25773438 15.87578125 3.265625 14.21875 C2.98767735 10.85067851 2.16594224 8.15961446 1 5 C0.63893903 3.33911955 0.29537827 1.67381019 0 0 Z " fill="#D6D6D6" transform="translate(136,119)"/>
<path d="M0 0 C8.80153498 -0.62079792 15.69942929 -0.31428931 23 5 C25.2905887 7.22173333 27.08339682 9.42771679 29 12 C25.46249971 12 25.19174106 11.53225602 22.75 9.1875 C15.41510623 2.7352283 8.51573912 2.41497208 -1 2 C-0.67 1.34 -0.34 0.68 0 0 Z " fill="#EDEDED" transform="translate(108,107)"/>
<path d="M0 0 C0.66 0.33 1.32 0.66 2 1 C-2.10957063 5.30526447 -5.30539462 6.36950023 -11.1875 7.125 C-12.45980469 7.29257812 -13.73210937 7.46015625 -15.04296875 7.6328125 C-16.01878906 7.75398438 -16.99460937 7.87515625 -18 8 C-18 7.34 -18 6.68 -18 6 C-20.64 6 -23.28 6 -26 6 C-22.74847183 3.83231455 -20.16534247 4.01053481 -16.359375 4.125 C-10.75334011 3.82799153 -5.29476987 1.76492329 0 0 Z " fill="#CCC0DB" transform="translate(281,299)"/>
<path d="M0 0 C1 2 1 2 0.40625 3.8046875 C-0.19600398 5.18052634 -0.80015964 6.55553436 -1.40625 7.9296875 C-2.19130137 9.9899414 -2.19130137 9.9899414 -1.4453125 12.0234375 C-1 14 -1 14 -1.9609375 15.921875 C-2.42757812 16.52515625 -2.89421875 17.1284375 -3.375 17.75 C-3.83648437 18.36359375 -4.29796875 18.9771875 -4.7734375 19.609375 C-5.17820313 20.06828125 -5.58296875 20.5271875 -6 21 C-6.33 21 -6.66 21 -7 21 C-7.52555044 12.41600946 -5.80495667 6.60564035 0 0 Z " fill="#3D3D3D" transform="translate(248,138)"/>
<path d="M0 0 C7.95773497 1.7246802 14.23905863 4.46826272 21 9 C20.01 9.495 20.01 9.495 19 10 C16.99053701 9.28873684 15.0144821 8.48150609 13.0625 7.625 C7.15492458 5.05524058 2.75204523 3.85933559 -3.6875 3.9375 C-4.38939453 3.94201172 -5.09128906 3.94652344 -5.81445312 3.95117188 C-7.54300538 3.96293073 -9.27151365 3.98086546 -11 4 C-10.67 3.34 -10.34 2.68 -10 2 C-7.71484375 1.5859375 -7.71484375 1.5859375 -4.9375 1.375 C-4.01839844 1.30023438 -3.09929687 1.22546875 -2.15234375 1.1484375 C-1.44207031 1.09945312 -0.73179687 1.05046875 0 1 C0 0.67 0 0.34 0 0 Z " fill="#5F5F5F" transform="translate(283,134)"/>
<path d="M0 0 C1.8671875 0.203125 1.8671875 0.203125 4 1 C5.1953125 3.109375 5.1953125 3.109375 6.125 5.75 C6.43695313 6.61109375 6.74890625 7.4721875 7.0703125 8.359375 C7.37710937 9.23078125 7.68390625 10.1021875 8 11 C8.37640625 11.88558594 8.7528125 12.77117187 9.140625 13.68359375 C10.10920816 16.29436564 9.95153881 17.43084523 9 20 C8.67 18.02 8.34 16.04 8 14 C7.01 14.33 6.02 14.66 5 15 C4.16013916 13.06532058 3.32831973 11.12714871 2.5 9.1875 C2.0359375 8.10855469 1.571875 7.02960938 1.09375 5.91796875 C0 3 0 3 0 0 Z " fill="#CBBFDB" transform="translate(338,160)"/>
<path d="M0 0 C0.66 0.33 1.32 0.66 2 1 C1.67 2.65 1.34 4.3 1 6 C-1.875 6.625 -1.875 6.625 -5 7 C-5.66 6.34 -6.32 5.68 -7 5 C-7 4.01 -7 3.02 -7 2 C-8.65 2 -10.3 2 -12 2 C-8.08488397 -0.61007735 -4.5480334 -0.22006613 0 0 Z " fill="#D0D0D0" transform="translate(387,298)"/>
<path d="M0 0 C0.33 0 0.66 0 1 0 C0.67422369 7.16707877 -2.65443628 12.76927124 -6 19 C-6.66 18.67 -7.32 18.34 -8 18 C-7.37793965 13.80109263 -5.93005303 10.51731506 -4 6.75 C-3.195625 5.16445312 -3.195625 5.16445312 -2.375 3.546875 C-1 1 -1 1 0 0 Z " fill="#D9CCEA" transform="translate(345,237)"/>
<path d="M0 0 C0.66 0.33 1.32 0.66 2 1 C1.67 2.65 1.34 4.3 1 6 C-1.76276177 5.47731534 -4.3260876 4.89130413 -7 4 C-7 3.34 -7 2.68 -7 2 C-8.65 2 -10.3 2 -12 2 C-8.08488397 -0.61007735 -4.5480334 -0.22006613 0 0 Z " fill="#CBCBCB" transform="translate(115,298)"/>
<path d="M0 0 C0.75 1.75 0.75 1.75 1 4 C-2.6506576 8.86754346 -8.62929321 11.42206074 -14 14 C-13.8125 12.125 -13.8125 12.125 -13 10 C-10.4375 8.75 -10.4375 8.75 -8 8 C-8 7.34 -8 6.68 -8 6 C-7.21625 5.731875 -6.4325 5.46375 -5.625 5.1875 C-2.71885077 4.15185568 -2.71885077 4.15185568 -1 1 C-0.67 0.67 -0.34 0.34 0 0 Z " fill="#DBDBDB" transform="translate(417,283)"/>
<path d="M0 0 C0.33 0 0.66 0 1 0 C0.03644647 9.41002278 0.03644647 9.41002278 -1 14 C-1.66 13.67 -2.32 13.34 -3 13 C-3.33 15.31 -3.66 17.62 -4 20 C-4.33 20 -4.66 20 -5 20 C-4.8863485 17.37405216 -4.75960946 14.74988453 -4.625 12.125 C-4.5940625 11.37863281 -4.563125 10.63226563 -4.53125 9.86328125 C-4.2265625 4.2265625 -4.2265625 4.2265625 -2 2 C-1.67 2.66 -1.34 3.32 -1 4 C-0.67 2.68 -0.34 1.36 0 0 Z " fill="#BFB3CD" transform="translate(154,181)"/>
<path d="M0 0 C2.31 0 4.62 0 7 0 C4.82111437 4.79354839 4.82111437 4.79354839 3 7 C-0.625 8.0625 -0.625 8.0625 -4 8 C-4.66 7.34 -5.32 6.68 -6 6 C-5.67 5.01 -5.34 4.02 -5 3 C-4.34 3.66 -3.68 4.32 -3 5 C-1.68 5 -0.36 5 1 5 C1.33 3.68 1.66 2.36 2 1 C1.34 0.67 0.68 0.34 0 0 Z " fill="#EAEAEA" transform="translate(115,298)"/>
<path d="M0 0 C3.86848614 1.11756266 6.28922757 2.02873292 9 5 C6.39491364 4.88608368 3.79154454 4.75934452 1.1875 4.625 C0.44951172 4.5940625 -0.28847656 4.563125 -1.04882812 4.53125 C-4.81893115 4.32653852 -6.79650741 4.13566173 -10 2 C-6.7 2.33 -3.4 2.66 0 3 C0 2.01 0 1.02 0 0 Z " fill="#BDB3CA" transform="translate(237,303)"/>
<path d="M0 0 C0.33 0 0.66 0 1 0 C1.66 3.3 2.32 6.6 3 10 C3.66 9.34 4.32 8.68 5 8 C7.42857143 15.42857143 7.42857143 15.42857143 6 19 C5.67 18.34 5.34 17.68 5 17 C4.34 17.33 3.68 17.66 3 18 C0.86380263 11.79485526 -0.36517527 6.57315478 0 0 Z " fill="#ACA2B8" transform="translate(149,216)"/>
<path d="M0 0 C1.65322266 0.01740234 1.65322266 0.01740234 3.33984375 0.03515625 C4.99693359 0.04869141 4.99693359 0.04869141 6.6875 0.0625 C7.54214844 0.07410156 8.39679688 0.08570313 9.27734375 0.09765625 C9.27734375 0.75765625 9.27734375 1.41765625 9.27734375 2.09765625 C5.66741203 3.23246152 2.29311105 3.19781392 -1.47265625 3.16015625 C-2.643125 3.15113281 -3.81359375 3.14210938 -5.01953125 3.1328125 C-5.9115625 3.12121094 -6.80359375 3.10960937 -7.72265625 3.09765625 C-7.08328125 2.78828125 -6.44390625 2.47890625 -5.78515625 2.16015625 C-1.71104522 0.06137178 -1.71104522 0.06137178 0 0 Z " fill="#E4D6F5" transform="translate(253.72265625,304.90234375)"/>
<path d="M0 0 C1.43410153 3.78819273 0.51009497 6.06521279 -0.9375 9.75 C-1.31777344 10.73484375 -1.69804687 11.7196875 -2.08984375 12.734375 C-2.39019531 13.48203125 -2.69054687 14.2296875 -3 15 C-3.33 15 -3.66 15 -4 15 C-4.38289206 5.23625255 -4.38289206 5.23625255 -2 1 C-1.34 0.67 -0.68 0.34 0 0 Z " fill="#D9CBE9" transform="translate(156,172)"/>
<path d="M0 0 C3.61055091 0.76242216 6.85834625 2.12473374 10.25 3.5625 C11.32765625 4.01753906 12.4053125 4.47257812 13.515625 4.94140625 C14.33546875 5.29074219 15.1553125 5.64007813 16 6 C16 6.33 16 6.66 16 7 C9.40770855 7.7013076 5.50623443 5.49602186 0 2 C0 1.34 0 0.68 0 0 Z " fill="#EBEBEB" transform="translate(363,292)"/>
<path d="M0 0 C3.61055091 0.76242216 6.85834625 2.12473374 10.25 3.5625 C11.32765625 4.01753906 12.4053125 4.47257812 13.515625 4.94140625 C14.33546875 5.29074219 15.1553125 5.64007813 16 6 C16 6.33 16 6.66 16 7 C9.40770855 7.7013076 5.50623443 5.49602186 0 2 C0 1.34 0 0.68 0 0 Z " fill="#EBEBEB" transform="translate(91,292)"/>
<path d="M0 0 C0.99 0.33 1.98 0.66 3 1 C-6.23076923 10.61538462 -6.23076923 10.61538462 -11 13 C-8.80821323 7.8194131 -4.93234093 2.79499319 0 0 Z " fill="#505050" transform="translate(239,119)"/>
<path d="M0 0 C0.66 0.33 1.32 0.66 2 1 C-0.62648392 5.97649586 -3.58739614 9.19579871 -9 11 C-7.59155282 7.78475695 -5.89655214 5.67816132 -3.375 3.25 C-2.74335938 2.63640625 -2.11171875 2.0228125 -1.4609375 1.390625 C-0.73777344 0.70226562 -0.73777344 0.70226562 0 0 Z " fill="#E0D2F1" transform="translate(182,131)"/>
<path d="M0 0 C0.66 0.33 1.32 0.66 2 1 C1.46375 1.66 0.9275 2.32 0.375 3 C-2.04293019 6.05422761 -4.34545985 9.17560788 -6.6328125 12.328125 C-8 14 -8 14 -10 15 C-9.02813494 8.68287712 -4.46929174 4.22099776 0 0 Z " fill="#3D3D3D" transform="translate(227,119)"/>
<path d="M0 0 C3.375 -0.125 3.375 -0.125 7 0 C7.66 0.66 8.32 1.32 9 2 C8.01 2.33 7.02 2.66 6 3 C6.99 3.66 7.98 4.32 9 5 C5.04 4.67 1.08 4.34 -3 4 C-2.34 3.67 -1.68 3.34 -1 3 C-0.67 2.01 -0.34 1.02 0 0 Z " fill="#6D6D6D" transform="translate(234,207)"/>
<path d="M0 0 C-3.0867491 1.02891637 -4.13934736 0.98947742 -7.23046875 0.44140625 C-8.03291016 0.30283203 -8.83535156 0.16425781 -9.66210938 0.02148438 C-10.91217773 -0.20571289 -10.91217773 -0.20571289 -12.1875 -0.4375 C-13.03248047 -0.58509766 -13.87746094 -0.73269531 -14.74804688 -0.88476562 C-16.8331891 -1.24996003 -18.91675673 -1.6241243 -21 -2 C-21 -2.33 -21 -2.66 -21 -3 C-13.90955619 -4.86590627 -6.54792718 -3.05569935 0 0 Z " fill="#5A5A5A" transform="translate(293,142)"/>
<path d="M0 0 C3.95726496 3.95726496 3.95726496 3.95726496 4.09765625 7.3828125 C4.08605469 8.28773438 4.07445312 9.19265625 4.0625 10.125 C4.05347656 11.03507813 4.04445313 11.94515625 4.03515625 12.8828125 C4.02355469 13.58148438 4.01195312 14.28015625 4 15 C3.01 15 2.02 15 1 15 C0.67 10.05 0.34 5.1 0 0 Z " fill="#CBCBCB" transform="translate(411,125)"/>
<path d="M0 0 C0.99 0.33 1.98 0.66 3 1 C1.65117186 5.04648443 -0.34826069 5.95502599 -4 8 C-4.99 7.67 -5.98 7.34 -7 7 C-4.78071806 4.09197539 -3.07030857 2.04687238 0 0 Z " fill="#D9CCE9" transform="translate(196,120)"/>
<path d="M0 0 C2.5625 0.3125 2.5625 0.3125 4.375 1.625 C5.5625 3.3125 5.5625 3.3125 5.5625 6.3125 C0.5625 4.3125 0.5625 4.3125 -4.4375 2.3125 C-2.4375 0.3125 -2.4375 0.3125 0 0 Z " fill="#C9BDD8" transform="translate(289.4375,112.6875)"/>
<path d="M0 0 C0.33 0.99 0.66 1.98 1 3 C-0.62339805 4.70884005 -2.29319053 6.37446717 -4 8 C-4.66 8 -5.32 8 -6 8 C-6.99 8.495 -6.99 8.495 -8 9 C-6.29220059 5.01513471 -3.92814393 1.96407197 0 0 Z " fill="#CFC2DF" transform="translate(175,140)"/>
<path d="M0 0 C4.40114397 0.50298788 6.71195019 2.08772731 10 5 C8.375 5.75 8.375 5.75 6 6 C2.75 4.1875 2.75 4.1875 0 2 C0 1.34 0 0.68 0 0 Z " fill="#DED0EF" transform="translate(294,116)"/>
<path d="M0 0 C6.625 0.75 6.625 0.75 10 3 C9.67 3.33 9.34 3.66 9 4 C7.47480724 3.91062197 5.95318071 3.75462854 4.4375 3.5625 C3.19806641 3.40974609 3.19806641 3.40974609 1.93359375 3.25390625 C1.29550781 3.17011719 0.65742188 3.08632812 0 3 C0 2.01 0 1.02 0 0 Z " fill="#D9CBE9" transform="translate(278,110)"/>
<path d="M0 0 C0 0.66 0 1.32 0 2 C-4.17737474 3.59138085 -7.53160785 4.21278058 -12 4 C-11 2 -11 2 -8.25 0.875 C-5.29813104 0.08026605 -3.02780163 -0.17810598 0 0 Z " fill="#E4D6F6" transform="translate(231,108)"/>
<path d="M0 0 C2.42130331 2.42130331 2.52840504 3.80111377 3.125 7.125 C3.29257813 8.03507813 3.46015625 8.94515625 3.6328125 9.8828125 C3.81457031 10.93082031 3.81457031 10.93082031 4 12 C3.01 12 2.02 12 1 12 C0.03929566 9.11788698 -0.10581883 7.30149956 -0.0625 4.3125 C-0.05347656 3.50425781 -0.04445312 2.69601563 -0.03515625 1.86328125 C-0.02355469 1.24839844 -0.01195312 0.63351563 0 0 Z " fill="#C1C1C1" transform="translate(195,137)"/>
<path d="M0 0 C5.15464734 0.48324819 8.81550319 3.18610761 13 6 C12.01 6.495 12.01 6.495 11 7 C8.92803369 6.26821134 6.8891448 5.44100997 4.875 4.5625 C3.77929688 4.08941406 2.68359375 3.61632812 1.5546875 3.12890625 C0.71164062 2.75636719 -0.13140625 2.38382813 -1 2 C-0.67 1.34 -0.34 0.68 0 0 Z " fill="#4D4D4D" transform="translate(291,137)"/>
<path d="M0 0 C0.66 0 1.32 0 2 0 C2.69710731 1.28650706 3.38242876 2.57940665 4.0625 3.875 C4.63677734 4.95394531 4.63677734 4.95394531 5.22265625 6.0546875 C5.47917969 6.69664063 5.73570312 7.33859375 6 8 C5 10 5 10 3 11 C1.72746564 7.35206816 0.67170806 3.8063457 0 0 Z " fill="#DADADA" transform="translate(136,119)"/>
<path d="M0 0 C0.66 0.33 1.32 0.66 2 1 C0.37280823 4.25438355 -2.73080811 4.70359632 -6 6 C-6.99 6.33 -7.98 6.66 -9 7 C-9 6.01 -9 5.02 -9 4 C-7.54618103 3.30300448 -6.08677047 2.61766134 -4.625 1.9375 C-3.40683594 1.36322266 -3.40683594 1.36322266 -2.1640625 0.77734375 C-1.09285156 0.39255859 -1.09285156 0.39255859 0 0 Z " fill="#E1E1E1" transform="translate(106,107)"/>
<path d="M0 0 C0.99 0.33 1.98 0.66 3 1 C2.979375 1.763125 2.95875 2.52625 2.9375 3.3125 C2.87057159 6.10185786 2.87057159 6.10185786 4 9 C2.0625 8.3125 2.0625 8.3125 0 7 C-0.93580311 4.12060581 -1.37245106 2.74490212 0 0 Z " fill="#D9D9D9" transform="translate(83,151)"/>
<path d="M0 0 C0.33 0 0.66 0 1 0 C1.05406122 1.93719378 1.09282025 3.87481921 1.125 5.8125 C1.14820313 6.89144531 1.17140625 7.97039062 1.1953125 9.08203125 C1 12 1 12 -1 15 C-1.66 15 -2.32 15 -3 15 C-2.690625 14.01 -2.38125 13.02 -2.0625 12 C-0.91566793 8.02268878 -0.43287644 4.11232621 0 0 Z " fill="#EAEAEA" transform="translate(413,132)"/>
<path d="M0 0 C0.33 0.66 0.66 1.32 1 2 C-1.64 2.33 -4.28 2.66 -7 3 C-7 2.34 -7 1.68 -7 1 C-8.32 0.67 -9.64 0.34 -11 0 C-3.19354839 -1.35111663 -3.19354839 -1.35111663 0 0 Z " fill="#D1C4E0" transform="translate(238,107)"/>
<path d="M0 0 C3.63 0.33 7.26 0.66 11 1 C11 1.66 11 2.32 11 3 C7.37 2.67 3.74 2.34 0 2 C0 1.34 0 0.68 0 0 Z " fill="#E8D9FA" transform="translate(226,303)"/>
<path d="M0 0 C0.99 0 1.98 0 3 0 C2.34 1.65 1.68 3.3 1 5 C-1.31 5.33 -3.62 5.66 -6 6 C-6 5.34 -6 4.68 -6 4 C-4.35 3.67 -2.7 3.34 -1 3 C-0.67 2.01 -0.34 1.02 0 0 Z " fill="#E2E2E2" transform="translate(389,300)"/>
<path d="M0 0 C0.99 0.33 1.98 0.66 3 1 C2.67 3.31 2.34 5.62 2 8 C1.01 8 0.02 8 -1 8 C-2 6 -2 6 -1.0625 2.875 C-0.5365625 1.451875 -0.5365625 1.451875 0 0 Z " fill="#CCC0DC" transform="translate(345,231)"/>
<path d="M0 0 C1.98 0.99 1.98 0.99 4 2 C4 3.98 4 5.96 4 8 C2.02 8.99 2.02 8.99 0 10 C0.185625 8.906875 0.37125 7.81375 0.5625 6.6875 C1.2578068 3.06375867 1.2578068 3.06375867 0 0 Z " fill="#F1F1F1" transform="translate(141,150)"/>
<path d="M0 0 C0.66 0 1.32 0 2 0 C1.835 1.093125 1.67 2.18625 1.5 3.3125 C0.93281816 6.87525873 0.93281816 6.87525873 1 10 C0.01 9.34 -0.98 8.68 -2 8 C-2.3125 5 -2.3125 5 -2 2 C-1.34 1.34 -0.68 0.68 0 0 Z " fill="#F2F2F2" transform="translate(357,150)"/>
<path d="M0 0 C1.98 0 3.96 0 6 0 C5.67 1.32 5.34 2.64 5 4 C3.35 3.67 1.7 3.34 0 3 C0 2.01 0 1.02 0 0 Z " fill="#373737" transform="translate(383,300)"/>
<path d="M0 0 C1.98 0 3.96 0 6 0 C5.67 1.32 5.34 2.64 5 4 C3.35 3.67 1.7 3.34 0 3 C0 2.01 0 1.02 0 0 Z " fill="#373737" transform="translate(111,300)"/>
<path d="M0 0 C0.99 0.33 1.98 0.66 3 1 C2.01 2.485 2.01 2.485 1 4 C-2.625 4.6875 -2.625 4.6875 -6 5 C-2.25 1.125 -2.25 1.125 0 0 Z " fill="#DED1EF" transform="translate(285,298)"/>
<path d="M0 0 C0 1.32 0 2.64 0 4 C-5.75 2.25 -5.75 2.25 -8 0 C-5.13822943 -1.43088528 -3.06624227 -0.59991697 0 0 Z " fill="#CBBFDA" transform="translate(213,297)"/>
<path d="M0 0 C2.64 0.33 5.28 0.66 8 1 C7.01 1.495 7.01 1.495 6 2 C6 2.66 6 3.32 6 4 C3.03 3.67 0.06 3.34 -3 3 C-2.01 2.67 -1.02 2.34 0 2 C0 1.34 0 0.68 0 0 Z " fill="#D7C9E7" transform="translate(264,106)"/>
<path d="M0 0 C-0.33 1.65 -0.66 3.3 -1 5 C-2.65 5.33 -4.3 5.66 -6 6 C-6 4.68 -6 3.36 -6 2 C-2.25 0 -2.25 0 0 0 Z " fill="#C9BDD8" transform="translate(293,295)"/>
<path d="M0 0 C0.99 0.33 1.98 0.66 3 1 C3 3.64 3 6.28 3 9 C2.01 8.34 1.02 7.68 0 7 C-0.1875 3.375 -0.1875 3.375 0 0 Z " fill="#D7C9E7" transform="translate(348,188)"/>
<path d="M0 0 C0.66 0 1.32 0 2 0 C2 2.97 2 5.94 2 9 C1.01 8.67 0.02 8.34 -1 8 C-1.04241723 5.66705225 -1.04092937 3.33297433 -1 1 C-0.67 0.67 -0.34 0.34 0 0 Z " fill="#EDEDED" transform="translate(356,281)"/>
<path d="M0 0 C0.99 0.33 1.98 0.66 3 1 C2.34 2.65 1.68 4.3 1 6 C1.66 6.33 2.32 6.66 3 7 C1.35 6.67 -0.3 6.34 -2 6 C-1.34 4.02 -0.68 2.04 0 0 Z " fill="#D0D0D0" transform="translate(139,143)"/>
<path d="M0 0 C1.3921875 0.3403125 1.3921875 0.3403125 2.8125 0.6875 C1.8225 1.1825 1.8225 1.1825 0.8125 1.6875 C0.8125 2.3475 0.8125 3.0075 0.8125 3.6875 C-1.4975 3.3575 -3.8075 3.0275 -6.1875 2.6875 C-4.14987265 -0.14253799 -3.59070275 -0.35202968 0 0 Z " fill="#C1B5CF" transform="translate(225.1875,301.3125)"/>
<path d="M0 0 C0.66 0.33 1.32 0.66 2 1 C2 2.98 2 4.96 2 7 C0.02 7.99 0.02 7.99 -2 9 C-1.34 6.03 -0.68 3.06 0 0 Z " fill="#F3F3F3" transform="translate(415,151)"/>
<path d="M0 0 C0.33 0.99 0.66 1.98 1 3 C-0.9375 6.1875 -0.9375 6.1875 -3 9 C-4 7 -4 7 -3.1875 3.9375 C-2 1 -2 1 0 0 Z " fill="#CACACA" transform="translate(249,141)"/>
<path d="M0 0 C3.36720387 1.39332574 4.9859524 2.9789286 7 6 C4 6 4 6 1.8125 4.125 C0 2 0 2 0 0 Z " fill="#E5E5E5" transform="translate(130,113)"/>
<path d="M0 0 C0 3.90838866 -1.50567876 5.11594107 -4 8 C-6 7 -6 7 -7 5 C-6.030625 4.360625 -5.06125 3.72125 -4.0625 3.0625 C-1.23963731 1.3034741 -1.23963731 1.3034741 0 0 Z " fill="#686868" transform="translate(294,163)"/>
</svg>
